<svg id="_1" data-name="1" xmlns="http://www.w3.org/2000/svg" viewBox="0 0 55.78 55.78"><defs><style>.cls-1{fill:#fff;}</style></defs><rect class="cls-1" width="55.78" height="55.78"/><path d="M97.24,107.05H89.69a.35.35,0,0,1-.34-.35.34.34,0,0,1,.34-.34h7.55a.34.34,0,0,1,.34.34A.35.35,0,0,1,97.24,107.05Z" transform="translate(-55.28 -84.77)"/><path d="M86.94,107.05H79.39a.35.35,0,0,1-.34-.35.34.34,0,0,1,.34-.34h7.55a.35.35,0,0,1,.35.34A.35.35,0,0,1,86.94,107.05Z" transform="translate(-55.28 -84.77)"/><path d="M87.13,109.79a1.21,1.21,0,0,1-1.07-.62,1.22,1.22,0,0,1,0-1.24l6.07-10.32a.36.36,0,0,1,.22-.16l5-1.1a1,1,0,0,1,.3,0A1.35,1.35,0,0,1,97.9,99l-4,.88-5.74,9.34A1.22,1.22,0,0,1,87.13,109.79Zm5.53-11.71-6,10.2a.57.57,0,0,0,0,.55.55.55,0,0,0,.95,0l5.81-9.47a.36.36,0,0,1,.22-.16l4.12-.91A.66.66,0,0,0,97.61,97a.39.39,0,0,0-.15,0Z" transform="translate(-55.28 -84.77)"/><path d="M70.43,123.46h0a3.48,3.48,0,0,1-1.15-.2h0a3.55,3.55,0,0,1-1-.57,5.72,5.72,0,0,1-.45-.39c-.27-.25-.57-.54-.35-.83a3.93,3.93,0,0,1,1.67-1.34l.14,0h0a3.45,3.45,0,0,1,1.31-.19,3.51,3.51,0,0,1,1.69.54h0a.54.54,0,0,1,.27.3.73.73,0,0,1,0,.36.11.11,0,0,0,0,0,4.61,4.61,0,0,0,0,.53,5.51,5.51,0,0,0,0,.81.36.36,0,0,1-.15.33,4,4,0,0,1-.73.4A3.53,3.53,0,0,1,70.43,123.46Zm-2.28-1.78a5.89,5.89,0,0,0,.51.47,3.19,3.19,0,0,0,.85.46l-.11.33.11-.33a2.66,2.66,0,0,0,.92.16,2.74,2.74,0,0,0,1-.2,2.49,2.49,0,0,0,.43-.22c0-.23,0-.45,0-.68s0-.39,0-.59c0,0,0-.06,0-.09a2.81,2.81,0,0,0-1.35-.42,2.66,2.66,0,0,0-1,.15h0l-.11,0A3.12,3.12,0,0,0,68.15,121.68Z" transform="translate(-55.28 -84.77)"/><path d="M69.24,120.8a.36.36,0,0,1-.29-.16,3.87,3.87,0,0,1-.6-2,.32.32,0,0,1,.23-.33,3.65,3.65,0,0,1,3.35.39,3.31,3.31,0,0,1,.84.83.34.34,0,0,1-.56.4,2.84,2.84,0,0,0-.67-.67,3,3,0,0,0-2.49-.38,3.16,3.16,0,0,0,.44,1.37.44.44,0,0,1,.08.11.35.35,0,0,1-.19.45h0Z" transform="translate(-55.28 -84.77)"/><path d="M69.91,125.3a3.88,3.88,0,0,1-1.33-.23.33.33,0,0,1-.23-.33,3.84,3.84,0,0,1,.6-2,.35.35,0,0,1,.41-.14.34.34,0,0,1,.2.44.13.13,0,0,1,0,.09,3.31,3.31,0,0,0-.46,1.41,3,3,0,0,0,2.49-.38,3,3,0,0,0,.67-.67.34.34,0,0,1,.48-.08.35.35,0,0,1,.08.48,3.68,3.68,0,0,1-.84.83A3.54,3.54,0,0,1,69.91,125.3Z" transform="translate(-55.28 -84.77)"/><path d="M95.18,128.33H82a.35.35,0,0,1-.34-.35.34.34,0,0,1,.34-.34H94.87l2.68-25.4H92.46l-4.28,7a1.23,1.23,0,0,1-2.11-1.27l3.34-5.69H79.09l1.31,12.47a.34.34,0,1,1-.68.07l-1.35-12.84a.33.33,0,0,1,.34-.38H90a.33.33,0,0,1,.3.17.34.34,0,0,1,0,.34l-3.65,6.21a.57.57,0,0,0,0,.55.55.55,0,0,0,.95,0L92,101.72a.37.37,0,0,1,.3-.16h5.66a.34.34,0,0,1,.25.11.33.33,0,0,1,.09.27L95.52,128A.35.35,0,0,1,95.18,128.33Z" transform="translate(-55.28 -84.77)"/><path d="M78.67,128.56a.35.35,0,0,1-.35-.34v-2a1.81,1.81,0,0,1,1.81-1.81h1.63a.68.68,0,0,0,.68-.68.69.69,0,0,0-.68-.69H77.29a1.72,1.72,0,0,1,0-3.43h3.78a.69.69,0,0,0,0-1.38h-.4a1.81,1.81,0,0,1-1.81-1.8v-1.79a.35.35,0,1,1,.69,0v1.79a1.12,1.12,0,0,0,1.12,1.12h.4a1.37,1.37,0,1,1,0,2.74H77.29a1,1,0,1,0,0,2.06h4.47a1.38,1.38,0,0,1,0,2.75H80.13A1.12,1.12,0,0,0,79,126.25v2A.34.34,0,0,1,78.67,128.56Z" transform="translate(-55.28 -84.77)"/><path d="M79.2,129a7.34,7.34,0,0,1,0-14.68c2.81,0,6,2.39,9,5a3.06,3.06,0,0,1,0,4.66C85.4,126.41,82.13,129,79.2,129Zm0-14a6.66,6.66,0,0,0,0,13.32c2.57,0,5.64-2.35,8.59-4.88a2.39,2.39,0,0,0,0-3.62C84.85,117.33,81.78,115,79.2,115Z" transform="translate(-55.28 -84.77)"/><path d="M93.12,114.6h-13a.35.35,0,0,1,0-.69h13a.35.35,0,0,1,0,.69Z" transform="translate(-55.28 -84.77)"/><path d="M69.78,112.54a1.72,1.72,0,1,1,1.72-1.72A1.72,1.72,0,0,1,69.78,112.54Zm0-2.75a1,1,0,1,0,0,2.06,1,1,0,1,0,0-2.06Z" transform="translate(-55.28 -84.77)"/><path d="M72.53,103.62a2.41,2.41,0,1,1,2.4-2.41A2.41,2.41,0,0,1,72.53,103.62Zm0-4.12a1.72,1.72,0,1,0,1.72,1.71A1.72,1.72,0,0,0,72.53,99.5Z" transform="translate(-55.28 -84.77)"/><path d="M88.8,99.64h0a.68.68,0,0,1-1,0h0a.68.68,0,0,1,0-1h0a.68.68,0,0,1,1,0h0A.68.68,0,0,1,88.8,99.64Z" transform="translate(-55.28 -84.77)"/><path d="M85.37,120.92h0a.68.68,0,0,1-1,0h0a.68.68,0,0,1,0-1h0a.68.68,0,0,1,1,0h0A.68.68,0,0,1,85.37,120.92Z" transform="translate(-55.28 -84.77)"/><rect x="91.75" y="121.12" width="1.37" height="1.37" transform="translate(-114.33 16.26) rotate(-45)"/><rect x="90.38" y="117.69" width="1.37" height="1.37" transform="translate(-112.31 14.28) rotate(-45)"/><rect x="93.41" y="116.03" width="1.37" height="1.37" transform="translate(-110.25 15.95) rotate(-45)"/><rect x="89.97" y="123.58" width="1.37" height="1.37" transform="translate(-116.59 15.73) rotate(-45)"/><path d="M75.76,109.25h0a.68.68,0,0,1-1,0h0a.68.68,0,0,1,0-1h0a.68.68,0,0,1,1,0h0A.68.68,0,0,1,75.76,109.25Z" transform="translate(-55.28 -84.77)"/><path d="M80.57,99h0a.69.69,0,0,1-1,0h0a.7.7,0,0,1,0-1h0a.69.69,0,0,1,1,0h0A.7.7,0,0,1,80.57,99Z" transform="translate(-55.28 -84.77)"/><path d="M77.82,118.17h0a.68.68,0,0,1-1,0h0a.68.68,0,0,1,0-1h0a.68.68,0,0,1,1,0h0A.68.68,0,0,1,77.82,118.17Z" transform="translate(-55.28 -84.77)"/><path d="M85.37,123.66h0a.68.68,0,0,1-1,0h0a.68.68,0,0,1,0-1h0a.68.68,0,0,1,1,0h0A.68.68,0,0,1,85.37,123.66Z" transform="translate(-55.28 -84.77)"/><path d="M77.13,125h0a.7.7,0,0,1-1,0h0a.7.7,0,0,1,0-1h0a.68.68,0,0,1,1,0h0A.68.68,0,0,1,77.13,125Z" transform="translate(-55.28 -84.77)"/></svg>