<svg xmlns="http://www.w3.org/2000/svg" xmlns:xlink="http://www.w3.org/1999/xlink" viewBox="0 0 1633.69 1104.31"><defs><style>.cls-1{fill:none;}.cls-2{fill:#f1be97;}.cls-3{fill:#fcddbf;}.cls-4{fill:#50a0d8;}.cls-5{fill:#1887c9;}.cls-6{fill:#dae7e8;}.cls-7{fill:#684135;}.cls-8{opacity:0.6;}.cls-9{fill:#49312c;}.cls-10{fill:#734433;}.cls-11{fill:#f08421;}.cls-12{fill:#d77527;}.cls-13{fill:#b7b533;}.cls-14{fill:#8a8b35;}.cls-15{opacity:0.4;}.cls-16{fill:#f38569;}.cls-17{fill:#874c30;}.cls-18{opacity:0.7;}.cls-19{fill:#563c36;}.cls-20{opacity:0.5;}.cls-21{fill:#efb085;}.cls-22{fill:#fff;}.cls-23{fill:#5d3e34;}.cls-24{fill:#fffff9;}.cls-25{clip-path:url(#clip-path);}.cls-26{fill:#e19a64;}.cls-27{fill:#e19b66;}.cls-28{fill:#e29d67;}.cls-29{fill:#e29e68;}.cls-30{fill:#e29d69;}.cls-31{fill:#e29e6a;}.cls-32{fill:#e39f6b;}.cls-33{fill:#e3a06c;}.cls-34{fill:#e3a06d;}.cls-35{fill:#e4a26e;}.cls-36{fill:#e4a36f;}.cls-37{fill:#e4a370;}.cls-38{fill:#e4a371;}.cls-39{fill:#e5a472;}.cls-40{fill:#e5a673;}.cls-41{fill:#e5a674;}.cls-42{fill:#e5a675;}.cls-43{fill:#e6a776;}.cls-44{fill:#e6a877;}.cls-45{fill:#e6aa78;}.cls-46{fill:#e7a979;}.cls-47{fill:#e7ab7a;}.cls-48{fill:#e7ab7b;}.cls-49{fill:#e8ac7c;}.cls-50{fill:#e8ac7d;}.cls-51{fill:#e8ad7e;}.cls-52{fill:#e8af7f;}.cls-53{fill:#e9b080;}.cls-54{fill:#e9af80;}.cls-55{fill:#e9b181;}.cls-56{fill:#eab182;}.cls-57{fill:#eab283;}.cls-58{fill:#ebb385;}.cls-59{fill:#eab486;}.cls-60{fill:#ebb486;}.cls-61{fill:#eab587;}.cls-62{fill:#ebb689;}.cls-63{fill:#ebb68a;}.cls-64{fill:#ecb88b;}.cls-65{fill:#ecb98c;}.cls-66{fill:#ecba8d;}.cls-67{fill:#edb98e;}.cls-68{fill:#edbb8f;}.cls-69{fill:#edbc91;}.cls-70{fill:#edbc92;}.cls-71{fill:#eebd93;}.cls-72{fill:#eebe94;}.cls-73{fill:#eebe95;}.cls-74{fill:#efbf96;}.cls-75{fill:#efbf97;}.cls-76{fill:#efc199;}.cls-77{fill:#f0c29a;}.cls-78{fill:#f0c39b;}.cls-79{fill:#f0c39c;}.cls-80{fill:#f1c59d;}.cls-81{fill:#f2c69e;}.cls-82{fill:#f2c69f;}.cls-83{fill:#f2c7a0;}.cls-84{fill:#f3c8a1;}.cls-85{fill:#f3c8a2;}.cls-86{fill:#f3c8a3;}.cls-87{fill:#f4caa4;}.cls-88{fill:#f4caa5;}.cls-89{fill:#f3cba6;}.cls-90{fill:#f3cba7;}.cls-91{fill:#f4cca8;}.cls-92{fill:#f5cda9;}.cls-93{fill:#f5ceaa;}.cls-94{fill:#f6ceab;}.cls-95{fill:#f6cfac;}.cls-96{fill:#f6d0ad;}.cls-97{fill:#f6d0ae;}.cls-98{fill:#f6d0af;}.cls-99{fill:#f6d2b0;}.cls-100{fill:#f6d3b1;}.cls-101{fill:#f7d4b2;}.cls-102{fill:#f7d3b3;}.cls-103{fill:#f7d5b4;}.cls-104{fill:#f8d6b5;}.cls-105{fill:#f8d7b6;}.cls-106{fill:#f8d7b7;}.cls-107{fill:#f8d7b8;}.cls-108{fill:#f9d8b9;}.cls-109{fill:#f9d9ba;}.cls-110{fill:#f8d9bb;}.cls-111{fill:#fadabc;}.cls-112{fill:#fadcbd;}.cls-113{fill:#faddbe;}.cls-114{fill:#c08667;}.cls-115{fill:#f26e4c;}.cls-116{fill:#c93b27;}.cls-117{fill:#8f999d;}.cls-118{fill:#c6c5c5;}.cls-119{fill:#e3e5e4;}.cls-120{fill:#704c33;}.cls-121{fill:#a87549;}.cls-122{fill:#fac9c9;}.cls-123{fill:#4b6d33;}.cls-124{fill:#cbdc50;}.cls-125{fill:#ea3d2a;}.cls-126{fill:#44271e;}.cls-127{fill:#a1c73a;}.cls-128{fill:#f2bc19;}.cls-129{fill:#fce300;}.cls-130{fill:#5f9441;}.cls-131{fill:#f79420;}.cls-132{fill:#e17126;}.cls-133{fill:#8a57ea;}.cls-134{fill:#502d91;}.cls-135{fill:#5646b7;}.cls-136{fill:#362c93;}.cls-137{opacity:0.54;}.cls-138{fill:#f9e1e5;}.cls-139{fill:#8e161f;opacity:0.55;}.cls-140{fill:#92ad3c;}.cls-141{fill:#6cbd53;}.cls-142{fill:#b52025;}.cls-143{fill:#fff292;}.cls-144{fill:#e2d8d8;}.cls-145{fill:#ff9100;}.cls-146{fill:#ffdd12;}.cls-147{fill:#86bde2;}.cls-148{fill:#3f4030;}.cls-149{fill:#5c9cbf;}.cls-150{fill:#e7bf4c;}.cls-151{fill:#fde0c1;}.cls-152{fill:#669f47;}.cls-153{fill:#dad38a;}.cls-154{fill:#915552;}.cls-155{fill:#e9eced;}.cls-156{fill:#b6bfc3;}.cls-157{fill:#dbdada;}.cls-158{fill:#919b9d;}.cls-159{fill:#7bcbf0;}.cls-160{fill:#36b8bf;}.cls-161{fill:#f4b519;}.cls-162{fill:#28140e;}.cls-163{fill:#a31937;}.cls-164{fill:#f8e1d4;}.cls-165{fill:#e53844;}.cls-166{fill:#f2797a;}.cls-167{fill:#cfedbe;}.cls-168{fill:#d38322;}.cls-169{fill:#e89623;}.cls-170{fill:#c46d16;}.cls-171{fill:#2c8e44;}.cls-172{fill:#9bd685;}.cls-173{fill:#b9e8a6;}.cls-174{fill:#008944;}.cls-175{fill:#7c5aa0;}.cls-176{fill:#64468c;}.cls-177{fill:#ffdfb0;}.cls-178{fill:#e9e9ea;}.cls-179{fill:#9e7051;}.cls-180{fill:#7c573d;}.cls-181{opacity:0.79;}.cls-182{fill:#eeb381;}.cls-183{fill:#8d5aa3;}.cls-184{fill:#a179bc;}.cls-185{fill:#73458c;}.cls-186{fill:#db8644;}.cls-187{fill:#c1692b;}.cls-188{fill:#cea742;}.cls-189{fill:#b28c39;}.cls-190{fill:#e0b453;}.cls-191{fill:#a78734;}.cls-192{fill:#f9b800;}.cls-193{fill:#c9ebf7;}.cls-194{fill:#f3f3f5;}.cls-195{fill:#fddb00;}.cls-196{fill:#ffc90e;}.cls-197{fill:#ce9811;}.cls-198{fill:#ffec5f;}.cls-199{fill:#fcf280;}.cls-200{fill:#fff8d2;}.cls-201{fill:#c6a51e;}.cls-202{fill:#ffdd50;}.cls-203{fill:#bcb38e;}.cls-204{fill:#ddc04a;}.cls-205{fill:#fdba18;}.cls-206{fill:#bc8413;}.cls-207{fill:#ffe445;}.cls-208{fill:#efb533;}.cls-209{fill:#ffdf78;}.cls-210{fill:#fdf8c0;}.cls-211{fill:#f7cb4f;}</style><clipPath id="clip-path" transform="translate(-1.38 -37.23)"><path class="cls-1" d="M772.78,758.28s-12.62-11.32-2.16-24.5c9.39-9.84,28.07-1.33,30.58,10.13l-5.62,15.16-12.76,3.61Z"/></clipPath></defs><g id="kid"><path class="cls-2" d="M432.1,826.8s17.92-61.17,78-46.66c0,0,18.45,19.68-18.83,31Z" transform="translate(-1.38 -37.23)"/><path class="cls-3" d="M606,992.07c-8.61,7.21-72.07,55.67-127.68,35.89-34.78-12.35-59.19-58.25-63.4-106.13-3.77-43,3.84-89.41,32.54-124.26,7.57-9.18,24-23.7,60.06-3.42,0,0,17.4,11.16,14.12,31.5,0,0,4.77,10.82-4,31.3a41.42,41.42,0,0,1-24.63,22.52l-.88-3.36s2,93.63,75.16,36.71Z" transform="translate(-1.38 -37.23)"/><path class="cls-2" d="M492.94,879.47l1.84-18.12s18.73,7.87-1.84,18.12" transform="translate(-1.38 -37.23)"/><path class="cls-2" d="M606,992.07c-10.76,10.09-45.2,24.5-67.44,29.54,0,0-35.83,8.62-67.63,3.1a73.31,73.31,0,0,0,7.39,3.25c45.89,17.43,120.5-5.63,133.42-16.43Z" transform="translate(-1.38 -37.23)"/><path class="cls-2" d="M491.88,876.08S479,966.14,573,921.47c0,0-3.43-1-5.74-8.65,0,0-73.9,54.76-71-38.9Z" transform="translate(-1.38 -37.23)"/><path class="cls-2" d="M1165.62,824.85s-17.92-61.16-78-46.66c0,0-18.45,19.69,18.83,31Z" transform="translate(-1.38 -37.23)"/><path class="cls-3" d="M991.76,990.13c8.61,7.2,72.06,55.66,127.68,35.88,34.78-12.35,59.19-58.24,63.4-106.13,3.77-43-3.84-89.41-32.55-124.26-7.56-9.18-24-23.7-60-3.42,0,0-17.4,11.16-14.12,31.5,0,0-4.77,10.83,4,31.3a41.42,41.42,0,0,0,24.63,22.52l.88-3.36s-2,93.63-75.16,36.71Z" transform="translate(-1.38 -37.23)"/><path class="cls-2" d="M1104.78,877.52l-1.84-18.12s-18.73,7.87,1.84,18.12" transform="translate(-1.38 -37.23)"/><path class="cls-2" d="M991.76,990.13c10.76,10.08,45.2,24.49,67.44,29.54,0,0,35.83,8.61,67.63,3.09a74.32,74.32,0,0,1-7.39,3.25c-45.89,17.43-120.5-5.62-133.42-16.43Z" transform="translate(-1.38 -37.23)"/><path class="cls-2" d="M1105.84,874.13s12.91,90.06-81.08,45.39c0,0,3.43-1,5.74-8.65,0,0,73.9,54.76,71-38.9Z" transform="translate(-1.38 -37.23)"/><path class="cls-4" d="M903.88,852.64l-34.56,10.55,19.84,126.63,98.44,33.88L1038.5,903s-108.79-53.61-136.22-56.89" transform="translate(-1.38 -37.23)"/><path class="cls-5" d="M939.22,967.54h0c-9.15-37.84-13-38.36-19.83-44.54-3.08-1.06-4.39,12.45-7.47,11.37-6.84,4.77-13.14,17.31-19.93,15.25l9.32,46.87,86.29,27.21,14.7-35.92S948.73,972,939.22,967.54" transform="translate(-1.38 -37.23)"/><path class="cls-4" d="M566.37,894.48,533,914.57c2.55,3.82,65.48,104.24,72.34,115.55,1.36,2.24,2.63,4.55,3.89,6.87l94.27-47.44L723,844.91C655.24,832.41,566.37,894.48,566.37,894.48Z" transform="translate(-1.38 -37.23)"/><path class="cls-5" d="M605.29,1030.12c1.36,2.24,2.63,4.55,3.89,6.87l94.27-47.44L686.4,928c-19.35,12.32-10.88,2.65-31,13.7l1-.32c-1.43.78,2.46,2.89-1.3,1.62-5.89-2-9.14,22.88-14,37.06-.21.62-28.15,15.86-49.55,27.42Q598.44,1018.81,605.29,1030.12Z" transform="translate(-1.38 -37.23)"/><path class="cls-4" d="M949.27,1087.74C934.21,963.4,921.52,915.8,902.72,831L666.49,877.73s-10.57,62.63-23,135.9c-4,23.27-7.44,54.52-9.3,75.87C739.2,1088.42,844.24,1085.05,949.27,1087.74Z" transform="translate(-1.38 -37.23)"/><path class="cls-6" d="M681.48,850.06c-.88,2.83,13.35,74.09,74.69,97.24,11,4.16,38.31-40.82,38.31-40.82s36,41.16,44,37.78c42.28-17.82,66.88-70.28,62.44-103.34Z" transform="translate(-1.38 -37.23)"/><path class="cls-2" d="M742.06,876.37c2.79,0,12,23.49,47.53,28.22,0,0,44.09,3.8,57.2-38.46Z" transform="translate(-1.38 -37.23)"/><path class="cls-7" d="M605.2,560.9s-23.76,102.17,30.95,140.34l18.61-110.87Z" transform="translate(-1.38 -37.23)"/><g class="cls-8"><path class="cls-9" d="M664.47,626.86l-9.71-36.49L605.2,560.9a243.91,243.91,0,0,0-5.12,51.83C606.21,614.09,647.62,626.31,664.47,626.86Z" transform="translate(-1.38 -37.23)"/></g><path class="cls-10" d="M948.58,545c62.77-96.77,160.89-44.26,170.28,21.49,9.12,64.27,30.83,62.31,72,73.82,0,0,50.12,9.18-55.42,53.92,0,0,29.84,14.63,12.9,23.15-28.35,14.27-84.32,16.95-116.4-14.79-21.16-21-33.84-18.94-41.51-64.51Z" transform="translate(-1.38 -37.23)"/><g class="cls-8"><path class="cls-9" d="M1190.86,640.29c-1.46-.42-2.85-.83-4.19-1.24-7.7,10.15-25.11,17.35-38.65,21.1-28,7.73-43.84,10.06-66.46-1.6-19.66-10.15-39-39.06-48.23-59.79-3.24-7.26-15.35-35.4-16.75-44-.87.45-63.65-19.8-33.12,26.5l7,56.81c7.67,45.57,20.35,43.55,41.51,64.51,32.08,31.74,90.68,28.3,116.4,14.79,16.79-8.82-12.9-23.15-12.9-23.15C1241,649.47,1190.86,640.29,1190.86,640.29Z" transform="translate(-1.38 -37.23)"/></g><path class="cls-11" d="M987.36,484.44a36.28,36.28,0,0,1,3.49,50.22A34,34,0,0,1,942,538.24,36.29,36.29,0,0,1,938.49,488,34,34,0,0,1,987.36,484.44Z" transform="translate(-1.38 -37.23)"/><path class="cls-12" d="M972.35,476.62c.36.59.66,1.21,1,1.77,4.15,7.16,4,18.93-2.29,28.91-10,15.84-23.73,26.69-26.75,28.09-1.77.82-3.79-.17-5.58-.49a34.09,34.09,0,0,0,52.14-.24,36.28,36.28,0,0,0-3.49-50.22A34.17,34.17,0,0,0,972.35,476.62Z" transform="translate(-1.38 -37.23)"/><path class="cls-13" d="M1033.57,516.7a37.33,37.33,0,0,1,3.59,51.66A35,35,0,0,1,986.89,572a37.33,37.33,0,0,1-3.57-51.67A34.94,34.94,0,0,1,1033.57,516.7Z" transform="translate(-1.38 -37.23)"/><path class="cls-14" d="M1008.92,507.4a30.63,30.63,0,0,1,10.09,9.74c3.58,5.62,7.93,19.88-8.21,41.68-7.56,10.25-19.24,12.12-29.68,6.38a35.77,35.77,0,0,0,7.24,7.74,35,35,0,0,0,50-6.5c12.05-16,10.68-39-4.87-51.39C1026.63,509.59,1017,507.1,1008.92,507.4Z" transform="translate(-1.38 -37.23)"/><path class="cls-2" d="M631.47,678s-18.7-24.77-37.38,5,26.21,67.11,42.68,53.4Z" transform="translate(-1.38 -37.23)"/><path class="cls-3" d="M1003.89,602.74v0L876.1,533.36l-101.66-6L648.06,582.89S628.63,660.6,627.67,723C626.44,802,671.27,876,777.18,881.3c0,0,104.84,3.84,160-71l81.21-112.06C1011,666.93,1007.61,634.72,1003.89,602.74Z" transform="translate(-1.38 -37.23)"/><g class="cls-15"><path class="cls-16" d="M959.18,692.62s3-15.26,15.59-13.24c0,0,12.48-.33,11.74,16,0,0,.48,19.84-19.94,20.37,0,0,19-11,9.56-27.09C976.13,688.69,966.85,680.75,959.18,692.62Z" transform="translate(-1.38 -37.23)"/></g><path class="cls-2" d="M643.6,603.77l-3.41,14s49.92,27,128.49,6.11c0,0-5.87,31.89,52.33,21.47S914.86,608,914.86,608L905,585.09,729.44,569Z" transform="translate(-1.38 -37.23)"/><path class="cls-17" d="M593.66,503.51c-4.33,25.27,7.51,72.45,45.66,99.3,0,0,43.24,34.69,151.31-5.46,0,0-46.66,33.81-5.1,39,41,5.17,93.47-18,118.5-46.64,0,0,9.9,94.7,40.37,101.7,0,0,3.92-25,26.56-28.71s27.81,22.63,27.81,22.63,3.29,10.82-1,21.83c-5.56,14.34-24.12,27.29-39.7,22.66,0,0-8.33,79.77-51.92,111.88,0,0,42.93-19.89,57.8-31.18s38.67-28.77,48.31-67.94,13-152.84-24.23-204.77c-58-82.55-186-71.65-206.81-69.18-57.23,6.78-95.11,41-142.37,28.18a42.61,42.61,0,0,1-17.22-9.28C614.4,480.91,599.06,472,593.66,503.51Z" transform="translate(-1.38 -37.23)"/><g class="cls-18"><path class="cls-19" d="M835.64,558.62h0c-32,10.43-88.94,13.15-140.2,7.25-31.16-3.6-66.14-14.09-86.73-40.23a88.15,88.15,0,0,1-14.33-25.73c-.26,1.14-.51,2.34-.72,3.6-4.33,25.27,7.51,72.45,45.66,99.3,0,0,49.26,30,151.31-5.46C792,593,835.64,558.62,835.64,558.62Z" transform="translate(-1.38 -37.23)"/></g><g class="cls-18"><path class="cls-19" d="M904,589.75s2.88-25.09,7.26-44.46c.41-.56.82-1.16,0-.06C899.2,561.61,869.6,583.67,853,595.05a208.33,208.33,0,0,1-52.6,25.15c-9.73,3-21.83,4.42-30.73-.44-3.37,7.48-1.22,14.49,15.88,16.63C826.55,641.56,879,618.42,904,589.75Z" transform="translate(-1.38 -37.23)"/></g><g class="cls-18"><path class="cls-19" d="M1018.55,613.59c.26,2.95-13.36-41.5-15.65-48.83,1,38-32,61.26-51,65.73-15.37,3.63-27.64,6-38.57-10.36-6.5-16.6-1.92,5.45-2.88,8.16,6,27.1,16.65,59.2,33.91,63.16,0,0,3.92-25,26.56-28.71s27.81,22.63,27.81,22.63,3.29,10.82-1,21.83c-5.56,14.34-24.12,27.29-39.7,22.66,0,0-9,71.61-49.91,110.55,63.52-26.86,94.46-58.62,104.1-97.79C1019,715.62,1030.81,667.76,1018.55,613.59Z" transform="translate(-1.38 -37.23)"/></g><g class="cls-20"><path class="cls-21" d="M740.81,696.37c-2.57,30.11-24.52,36.64-43.19,32.46C676.55,724.12,666.07,705.58,669,686s20.63-33,39.5-30S742.48,676.63,740.81,696.37Z" transform="translate(-1.38 -37.23)"/></g><g class="cls-15"><path class="cls-16" d="M941.48,754.19c-2.67,17.65-18.75,29.74-35.91,27s-28.94-19.26-26.28-36.91,18.75-29.75,35.92-27S944.14,736.53,941.48,754.19Z" transform="translate(-1.38 -37.23)"/></g><path class="cls-17" d="M661.54,680.5,686,691.75c2.58,1.18,4.82-2.72,2.24-3.91l-24.44-11.25c-2.58-1.2-4.83,2.71-2.23,3.91Z" transform="translate(-1.38 -37.23)"/><path class="cls-17" d="M669.72,662.36q8.56,10.57,17.13,21.15c1.82,2.24,4.92-1,3.12-3.21l-17.13-21.14c-1.83-2.25-4.93,1-3.12,3.2Z" transform="translate(-1.38 -37.23)"/><path class="cls-22" d="M737.93,701.73c-2.71,18.11-19.22,30.52-36.85,27.71s-29.68-19.77-27-37.89S693.36,661,711,663.86,740.68,683.61,737.93,701.73Z" transform="translate(-1.38 -37.23)"/><path class="cls-23" d="M737.14,707c-2.29,15.23-16.15,25.66-31,23.3s-25-16.62-22.67-31.85,16.16-25.66,31-23.3S739.45,691.72,737.14,707Z" transform="translate(-1.38 -37.23)"/><g class="cls-15"><path class="cls-16" d="M693.9,759.83C691.32,777,675.68,788.74,659,786.08s-28.13-18.73-25.55-35.89,18.23-28.92,34.93-26.25S696.49,742.66,693.9,759.83Z" transform="translate(-1.38 -37.23)"/></g><path class="cls-24" d="M726.57,693.3a6.76,6.76,0,0,1-7.67,5.77,6.9,6.9,0,0,1-5.62-7.89,6.76,6.76,0,0,1,7.67-5.77A6.9,6.9,0,0,1,726.57,693.3Z" transform="translate(-1.38 -37.23)"/><g class="cls-25"><polygon class="cls-26" points="789.61 686.71 758.77 720.67 758.8 686.68 789.61 686.71"/><polygon class="cls-26" points="789.93 686.71 758.77 721.03 758.77 720.67 789.61 686.71 789.93 686.71"/><polygon class="cls-26" points="790.24 686.71 758.77 721.38 758.77 721.03 789.93 686.71 790.24 686.71"/><polygon class="cls-27" points="790.56 686.71 758.77 721.72 758.77 721.38 790.24 686.71 790.56 686.71"/><polygon class="cls-27" points="758.77 722.08 790.88 686.71 790.56 686.71 758.77 721.72 758.77 722.08"/><polygon class="cls-28" points="791.2 686.71 758.77 722.42 758.77 722.08 790.88 686.71 791.2 686.71"/><polygon class="cls-29" points="791.52 686.71 758.77 722.78 758.77 722.42 791.2 686.71 791.52 686.71"/><polygon class="cls-30" points="791.84 686.72 758.77 723.13 758.77 722.78 791.52 686.71 791.84 686.72"/><polygon class="cls-31" points="758.77 723.49 792.16 686.72 791.84 686.72 758.77 723.13 758.77 723.49"/><polygon class="cls-32" points="792.48 686.72 758.77 723.83 758.77 723.49 792.16 686.72 792.48 686.72"/><polygon class="cls-33" points="792.79 686.72 758.77 724.19 758.77 723.83 792.48 686.72 792.79 686.72"/><polygon class="cls-34" points="793.11 686.72 758.77 724.53 758.77 724.19 792.79 686.72 793.11 686.72"/><polygon class="cls-35" points="758.77 724.9 793.43 686.72 793.11 686.72 758.77 724.53 758.77 724.9"/><polygon class="cls-36" points="793.75 686.72 758.77 725.26 758.77 724.9 793.43 686.72 793.75 686.72"/><polygon class="cls-37" points="794.07 686.72 758.91 725.42 758.77 725.42 758.77 725.26 793.75 686.72 794.07 686.72"/><polygon class="cls-38" points="759.23 725.42 794.39 686.72 794.07 686.72 758.91 725.42 759.23 725.42"/><polygon class="cls-39" points="794.71 686.72 759.55 725.42 759.23 725.42 794.39 686.72 794.71 686.72"/><polygon class="cls-40" points="795.02 686.72 759.87 725.42 759.55 725.42 794.71 686.72 795.02 686.72"/><polygon class="cls-41" points="795.34 686.72 760.19 725.42 759.87 725.42 795.02 686.72 795.34 686.72"/><polygon class="cls-42" points="795.66 686.72 760.5 725.42 760.19 725.42 795.34 686.72 795.66 686.72"/><polygon class="cls-43" points="796 686.72 760.84 725.42 760.5 725.42 795.66 686.72 796 686.72"/><polygon class="cls-44" points="796.3 686.72 761.14 725.42 760.84 725.42 796 686.72 796.3 686.72"/><polygon class="cls-45" points="796.62 686.72 761.46 725.42 761.14 725.42 796.3 686.72 796.62 686.72"/><polygon class="cls-46" points="761.78 725.42 796.94 686.72 796.62 686.72 761.46 725.42 761.78 725.42"/><polygon class="cls-47" points="797.26 686.72 762.1 725.42 761.78 725.42 796.94 686.72 797.26 686.72"/><polygon class="cls-48" points="797.58 686.72 762.42 725.42 762.1 725.42 797.26 686.72 797.58 686.72"/><polygon class="cls-49" points="797.9 686.72 762.73 725.42 762.42 725.42 797.58 686.72 797.9 686.72"/><polygon class="cls-50" points="798.23 686.72 763.07 725.42 762.73 725.42 797.9 686.72 798.23 686.72"/><polygon class="cls-51" points="798.53 686.72 763.37 725.42 763.07 725.42 798.23 686.72 798.53 686.72"/><polygon class="cls-52" points="798.85 686.72 763.69 725.42 763.37 725.42 798.53 686.72 798.85 686.72"/><polygon class="cls-53" points="799.17 686.72 764.01 725.42 763.69 725.42 798.85 686.72 799.17 686.72"/><polygon class="cls-54" points="799.49 686.72 764.35 725.42 764.01 725.42 799.17 686.72 799.49 686.72"/><polygon class="cls-55" points="799.81 686.72 764.65 725.42 764.35 725.42 799.49 686.72 799.81 686.72"/><polygon class="cls-56" points="799.83 687.05 764.97 725.42 764.65 725.42 799.81 686.72 799.84 686.72 799.83 687.05"/><polygon class="cls-56" points="765.3 725.42 799.83 687.39 799.83 687.05 764.97 725.42 765.3 725.42"/><polygon class="cls-57" points="799.83 687.75 765.61 725.42 765.3 725.42 799.83 687.39 799.83 687.75"/><polygon class="cls-58" points="799.83 688.1 765.92 725.42 765.61 725.42 799.83 687.75 799.83 688.1"/><polygon class="cls-59" points="799.83 688.46 766.24 725.43 765.92 725.42 799.83 688.1 799.83 688.46"/><polygon class="cls-60" points="799.83 688.8 766.58 725.43 766.24 725.43 799.83 688.46 799.83 688.8"/><polygon class="cls-61" points="799.83 689.16 766.88 725.43 766.58 725.43 799.83 688.8 799.83 689.16"/><polygon class="cls-62" points="799.83 689.51 767.2 725.43 766.88 725.43 799.83 689.16 799.83 689.51"/><polygon class="cls-63" points="799.83 689.87 767.53 725.43 767.2 725.43 799.83 689.51 799.83 689.87"/><polygon class="cls-63" points="799.83 690.21 767.84 725.43 767.53 725.43 799.83 689.87 799.83 690.21"/><polygon class="cls-64" points="799.83 690.57 768.17 725.43 767.84 725.43 799.83 690.21 799.83 690.57"/><polygon class="cls-65" points="799.83 690.91 768.47 725.43 768.17 725.43 799.83 690.57 799.83 690.91"/><polygon class="cls-66" points="768.81 725.43 799.83 691.26 799.83 690.91 768.47 725.43 768.81 725.43"/><polygon class="cls-67" points="799.83 691.62 769.13 725.43 768.81 725.43 799.83 691.26 799.83 691.62"/><polygon class="cls-68" points="799.83 691.96 769.43 725.43 769.13 725.43 799.83 691.62 799.83 691.96"/><polygon class="cls-69" points="799.83 692.32 769.76 725.43 769.43 725.43 799.83 691.96 799.83 692.32"/><polygon class="cls-70" points="770.08 725.43 799.83 692.67 799.83 692.32 769.76 725.43 770.08 725.43"/><polygon class="cls-71" points="799.83 693.03 770.4 725.43 770.08 725.43 799.83 692.67 799.83 693.03"/><polygon class="cls-72" points="799.83 693.37 770.7 725.43 770.4 725.43 799.83 693.03 799.83 693.37"/><polygon class="cls-73" points="771.04 725.43 799.83 693.73 799.83 693.37 770.7 725.43 771.04 725.43"/><polygon class="cls-74" points="799.83 694.07 771.36 725.43 771.04 725.43 799.83 693.73 799.83 694.07"/><polygon class="cls-75" points="799.83 694.44 771.66 725.43 771.36 725.43 799.83 694.07 799.83 694.44"/><polygon class="cls-76" points="799.83 694.8 771.99 725.43 771.66 725.43 799.83 694.44 799.83 694.8"/><polygon class="cls-77" points="799.83 695.14 772.31 725.43 771.99 725.43 799.83 694.8 799.83 695.14"/><polygon class="cls-78" points="799.83 695.49 772.63 725.43 772.31 725.43 799.83 695.14 799.83 695.49"/><polygon class="cls-79" points="799.83 695.84 772.94 725.43 772.63 725.43 799.83 695.49 799.83 695.84"/><polygon class="cls-80" points="799.83 696.19 773.27 725.43 772.94 725.43 799.83 695.84 799.83 696.19"/><polygon class="cls-81" points="799.83 696.55 773.59 725.43 773.27 725.43 799.83 696.19 799.83 696.55"/><polygon class="cls-82" points="799.83 696.89 773.91 725.43 773.59 725.43 799.83 696.55 799.83 696.89"/><polygon class="cls-83" points="799.83 697.25 774.23 725.43 773.91 725.43 799.83 696.89 799.83 697.25"/><polygon class="cls-84" points="774.54 725.43 799.83 697.6 799.83 697.25 774.23 725.43 774.54 725.43"/><polygon class="cls-85" points="799.83 697.94 774.86 725.43 774.54 725.43 799.83 697.6 799.83 697.94"/><polygon class="cls-86" points="799.83 698.3 775.17 725.43 774.86 725.43 799.83 697.94 799.83 698.3"/><polygon class="cls-87" points="799.83 698.66 775.5 725.43 775.17 725.43 799.83 698.3 799.83 698.66"/><polygon class="cls-88" points="799.83 699.01 775.82 725.43 775.5 725.43 799.83 698.66 799.83 699.01"/><polygon class="cls-89" points="799.83 699.35 776.14 725.43 775.82 725.43 799.83 699.01 799.83 699.35"/><polygon class="cls-90" points="799.83 699.71 776.46 725.43 776.14 725.43 799.83 699.35 799.83 699.71"/><polygon class="cls-91" points="776.78 725.43 799.83 700.05 799.83 699.71 776.46 725.43 776.78 725.43"/><polygon class="cls-92" points="799.82 700.41 777.1 725.43 776.78 725.43 799.83 700.05 799.82 700.41"/><polygon class="cls-93" points="799.82 700.76 777.4 725.43 777.1 725.43 799.82 700.41 799.82 700.76"/><polygon class="cls-94" points="777.73 725.43 799.82 701.12 799.82 700.76 777.4 725.43 777.73 725.43"/><polygon class="cls-95" points="799.82 701.46 778.05 725.43 777.73 725.43 799.82 701.12 799.82 701.46"/><polygon class="cls-96" points="799.82 701.81 778.37 725.43 778.05 725.43 799.82 701.46 799.82 701.81"/><polygon class="cls-97" points="799.82 702.17 778.69 725.43 778.37 725.43 799.82 701.81 799.82 702.17"/><polygon class="cls-98" points="799.82 702.53 779.01 725.44 778.69 725.43 799.82 702.17 799.82 702.53"/><polygon class="cls-99" points="799.82 702.87 779.32 725.44 779.01 725.44 799.82 702.53 799.82 702.87"/><polygon class="cls-100" points="799.82 703.21 779.64 725.44 779.32 725.44 799.82 702.87 799.82 703.21"/><polygon class="cls-101" points="779.96 725.44 799.82 703.58 799.82 703.21 779.64 725.44 779.96 725.44"/><polygon class="cls-102" points="799.82 703.94 780.28 725.44 779.96 725.44 799.82 703.58 799.82 703.94"/><polygon class="cls-103" points="799.82 704.28 780.6 725.44 780.28 725.44 799.82 703.94 799.82 704.28"/><polygon class="cls-104" points="799.82 704.62 780.92 725.44 780.6 725.44 799.82 704.28 799.82 704.62"/><polygon class="cls-105" points="799.82 704.98 781.24 725.44 780.92 725.44 799.82 704.62 799.82 704.98"/><polygon class="cls-106" points="799.82 705.33 781.55 725.44 781.24 725.44 799.82 704.98 799.82 705.33"/><polygon class="cls-107" points="799.82 705.67 781.88 725.44 781.55 725.44 799.82 705.33 799.82 705.67"/><polygon class="cls-108" points="799.82 706.03 782.2 725.44 781.88 725.44 799.82 705.67 799.82 706.03"/><polygon class="cls-109" points="799.82 706.39 782.51 725.44 782.2 725.44 799.82 706.03 799.82 706.39"/><polygon class="cls-110" points="799.82 706.74 782.83 725.44 782.51 725.44 799.82 706.39 799.82 706.74"/><polygon class="cls-111" points="799.82 707.1 783.15 725.45 782.83 725.44 799.82 706.74 799.82 707.1"/><polygon class="cls-112" points="799.82 707.44 783.47 725.45 783.15 725.45 799.82 707.1 799.82 707.44"/><polygon class="cls-113" points="799.82 707.8 783.79 725.45 783.47 725.45 799.82 707.44 799.82 707.8"/><polygon class="cls-3" points="799.82 708.14 784.1 725.45 783.79 725.45 799.82 707.8 799.82 708.14"/><polygon class="cls-3" points="799.82 708.49 784.42 725.45 784.1 725.45 799.82 708.14 799.82 708.49"/><polygon class="cls-3" points="784.42 725.45 799.82 708.49 799.8 725.46 784.42 725.45"/></g><g class="cls-20"><path class="cls-21" d="M900.86,692.49c-3,19.42-18.32,35.07-37.24,34.11-30.47-1.54-39.92-24.9-36.47-44.23,4.29-24.22,26.39-33.44,45.12-30.46S903.78,673.06,900.86,692.49Z" transform="translate(-1.38 -37.23)"/></g><path class="cls-17" d="M893.32,654.68l-19.54,14.47c-2.29,1.7-.09,5.63,2.22,3.92q9.78-7.25,19.54-14.48c2.29-1.68.09-5.63-2.22-3.91Z" transform="translate(-1.38 -37.23)"/><path class="cls-17" d="M904.63,668.31l-23.21,10.05c-2.61,1.14-.37,5,2.22,3.92l23.22-10c2.61-1.12.36-5-2.23-3.92Z" transform="translate(-1.38 -37.23)"/><path class="cls-22" d="M895.43,697.91c-2.76,18.21-19.33,30.68-37.07,27.86s-29.84-19.87-27.09-38.08,19.34-30.68,37-27.86S898.16,679.71,895.43,697.91Z" transform="translate(-1.38 -37.23)"/><path class="cls-23" d="M894.62,703.3c-2.31,15.23-16.17,25.66-31,23.3S838.66,710,841,694.76s16.16-25.66,31-23.3S896.9,688.08,894.62,703.3Z" transform="translate(-1.38 -37.23)"/><path class="cls-24" d="M882.72,687.83a6.54,6.54,0,0,1-7.45,5.58,6.66,6.66,0,0,1-5.43-7.64,6.55,6.55,0,0,1,7.44-5.59A6.69,6.69,0,0,1,882.72,687.83Z" transform="translate(-1.38 -37.23)"/><path class="cls-2" d="M958.09,729.86s-4.22,126-122.56,144.9c0,0-73.3,25.35-142.14-16.47,0,0,59.54,34.36,143.92,13.75,77.71-19,107.78-78.85,114-146.9Z" transform="translate(-1.38 -37.23)"/><path class="cls-114" d="M686.55,646.21c5.64-10,23.72-8.56,29.67.41,2.23,3.36,7.59.2,5.34-3.2-8.51-12.85-32.24-14.73-40.34-.41-2,3.53,3.33,6.74,5.33,3.2Z" transform="translate(-1.38 -37.23)"/><path class="cls-114" d="M853.31,643.55c8-7.41,23.07-10.95,30.17-.22,2.22,3.36,7.58.2,5.33-3.2-9.43-14.27-28.75-11.43-39.87-1.07-3,2.76,1.43,7.23,4.37,4.49Z" transform="translate(-1.38 -37.23)"/><path class="cls-115" d="M852.41,776.51c-5-2-12,12.28-17.17,11-1.13-.19-4.65-.87-5.15-.95-2.79-.38-5.6-.75-8.43-1a231.76,231.76,0,0,0-38.36-.11c-1.22.1-2.06.18-2.55.21l-4.44.5c-3,.39-6,.77-8.95,1.23-5.86.92-11.71,1.89-17.51,3.07-11.14,2.28-25.33-1.21-36.27,2,6.39,22.94,28.91,49.65,77.19,50.87,47-2,69.3-29.65,76-58.42C862.47,785.57,856.64,778.19,852.41,776.51Z" transform="translate(-1.38 -37.23)"/><path class="cls-116" d="M799.37,805.24c-17.47,5.5-33.53,16.85-46.35,30.43a107.69,107.69,0,0,0,37.75,7.67c38.94-2.2,60.5-21.25,70-41.18C849.69,796.94,818.5,799.22,799.37,805.24Z" transform="translate(-1.38 -37.23)"/><path class="cls-22" d="M787.34,792.25q39.76-3,79.39-7.33a66,66,0,0,0,1.13-8.91s-1.7-31.54-26.24-14.9c-56.64,38.39-97,12.13-110.76,6.21-22.34-9.67-18.55,20.12-18.55,20.12s.39,1.93,1.27,5" transform="translate(-1.38 -37.23)"/><path class="cls-6" d="M804.07,956.17a9.78,9.78,0,1,1-9.77-9.81A9.81,9.81,0,0,1,804.07,956.17Z" transform="translate(-1.38 -37.23)"/><path class="cls-6" d="M804,995.6a9.78,9.78,0,1,1-9.77-9.82A9.8,9.8,0,0,1,804,995.6Z" transform="translate(-1.38 -37.23)"/><path class="cls-117" d="M1123.48,911.71l-19.13-143c9.72-10.17,15.2-29.66,14.5-41.63-.3-5.13-3.64-29.3-7-46.54-1.42.13-2.83.27-4.24.43l-5.55.65c2.09,17.73,4.16,43.26,3.16,47.34-4.46,18.32-18.34,30.4-18.34,30.4l30.56,164.15S1124.92,919.26,1123.48,911.71Z" transform="translate(-1.38 -37.23)"/><path class="cls-118" d="M1071.82,762.94,1087.09,773l4.06,143.23c6.27,12.4,17.84,8.24,26.26,7.29l-18.5-154.27c.68-27.65-6.78-23.17-6.78-23.17l-12.07,2.22c-11.16-6.59-8.65-17.08-8.65-17.08l-3.3-44.82c-3.45.47-6.91.91-10.36,1.33.08,13.83-1,35.8-.82,43.41C1057.27,750.48,1056.94,750.91,1071.82,762.94Z" transform="translate(-1.38 -37.23)"/><path class="cls-118" d="M1080.71,685.41,1082,720.1l1.37,30.53,15.13,23.25-9-89.71Z" transform="translate(-1.38 -37.23)"/><path class="cls-118" d="M1097.07,682.39c2.25,16.91,4.78,41.65,4.43,45.6-1,11.7-3.46,21.43-8.16,25.17L1089.09,781c.08,0,21.51-23,24.23-41.27a68.57,68.57,0,0,0,.25-14.36c-.28-4-3.31-27.52-6.23-44.24Q1102.2,681.7,1097.07,682.39Z" transform="translate(-1.38 -37.23)"/><path class="cls-117" d="M1074.41,728.33c-.22-3.79-2-27.38-3.29-42.33l-5.31.71c1.37,15.93,4.3,42.38,4.33,45.25.12,16.59,13.23,18.67,13.23,18.67l.34-4.59S1075.26,743.1,1074.41,728.33Z" transform="translate(-1.38 -37.23)"/><path class="cls-117" d="M1098.09,747.21c-.06-5.09-5.69-47.34-7.75-63.9l-4.37.61c1.58,16.65,5.09,40.51,5.37,43.79,1.61,18.62,5.21,23.74,3.16,22.47l3.59-3Z" transform="translate(-1.38 -37.23)"/><path class="cls-3" d="M1117,782.63c-20.23,2.17-46.27,11.89-51.65,21.61-8.14,14.7,1.76,25,7.53,23.78-4.21,3.22-9.69,6.48-7.53,17.29,1,5.21,6.57,12.7,14,11.89-2.54,7.07-6.46,23.77,14,25.94,16,1.69,37-5.15,51.65-11.89" transform="translate(-1.38 -37.23)"/><path class="cls-2" d="M1072.89,828s26.9-11.89,47.35-15.13l-13.81-3.67-43.23,11.23S1064.28,826.94,1072.89,828Z" transform="translate(-1.38 -37.23)"/><path class="cls-2" d="M1079.35,857.2s42-11.89,49.5-11.89L1117,838.83s-35.51,11.88-47.35,14C1069.66,852.88,1068.58,855,1079.35,857.2Z" transform="translate(-1.38 -37.23)"/><path class="cls-2" d="M1079.35,876.65s8.61,18.37,56,0l-7.54-7.56S1102,881,1079.35,876.65Z" transform="translate(-1.38 -37.23)"/><path class="cls-117" d="M501.67,912.89,525.45,774.7c26.19-14.25,29.29-25,32.26-36.89,1.23-4.94,8.07-58.75-24-62.7-3.37,18,8.07,50,5.85,53.66-10,16.51-27.19,24.05-27.19,24.05L492.14,922.56S500.78,920.71,501.67,912.89Z" transform="translate(-1.38 -37.23)"/><path class="cls-118" d="M508.45,766.2h0L468.71,907.36c2.35,14,14.92,13.54,23.43,15.2l29-156.38c9.09-26.8.44-24.72.44-24.72l6.72-8.32c-8.89-9.88-4-12.75-4-12.75l9.44-45.28c-3.52-.61-27.27,1.15-37.46,37.16C490.36,731.17,489.06,757.92,508.45,766.2Z" transform="translate(-1.38 -37.23)"/><path class="cls-118" d="M529,678.68,519.63,713l-8,30.24,7.69,27.37,18.6-90.39Z" transform="translate(-1.38 -37.23)"/><path class="cls-118" d="M533.72,675.11l-18.15,40.24L508,774.58s29.16-4.14,39.12-27.37C564.12,699,539.45,672.91,533.72,675.11Z" transform="translate(-1.38 -37.23)"/><path class="cls-119" d="M512.66,756.2s-17.53-4.27-10.24-34.17c5.46-22.37,10.46-33.46,22.89-33.38,0,0-13.27,11.06-15.83,36.5C509.48,725.15,503.35,750.75,512.66,756.2Z" transform="translate(-1.38 -37.23)"/><path class="cls-3" d="M480.71,784.58c20.23,2.16,46.27,11.89,51.65,21.61,8.13,14.7-1.76,25-7.53,23.78,4.21,3.22,9.69,6.48,7.53,17.29-1,5.21-6.57,12.7-14,11.89,2.54,7.07,6.46,23.77-14,25.93-16,1.69-37-5.14-51.65-11.88" transform="translate(-1.38 -37.23)"/><path class="cls-2" d="M524.83,830s-26.9-11.89-47.35-15.13l13.81-3.67,43.23,11.23S533.44,828.89,524.83,830Z" transform="translate(-1.38 -37.23)"/><path class="cls-2" d="M518.37,859.15s-42-11.89-49.5-11.89l11.84-6.48s35.51,11.88,47.35,14C528.06,854.82,529.14,857,518.37,859.15Z" transform="translate(-1.38 -37.23)"/><path class="cls-2" d="M518.37,878.6s-8.61,18.37-56,0l7.53-7.56S495.77,882.92,518.37,878.6Z" transform="translate(-1.38 -37.23)"/><polygon class="cls-120" points="1633.69 1104.31 1633.69 1046.01 0 1046.04 0 1104.31 1633.69 1104.31"/><polygon class="cls-121" points="1633.69 1055.87 1633.69 1046.1 0 1046.12 0 1061.45 1633.69 1055.87"/></g><g id="_5_food_groups" data-name="5 food groups"><ellipse class="cls-122" cx="1274.64" cy="291.96" rx="189.91" ry="190.7"/><path class="cls-123" d="M1347.44,250.42l45.83-33.33,4.65,1s1.76,87.61-92.53,106.27c-99,19.59-154-37.79-158.27-99l4.74-1.17" transform="translate(-1.38 -37.23)"/><path class="cls-124" d="M1393.27,217.09l-241.41,7.07s5.28,96,119.61,97.67C1271.47,321.83,1378.8,329,1393.27,217.09Z" transform="translate(-1.38 -37.23)"/><path class="cls-125" d="M1368.76,217.51l-196.28,5.14s13.86,84.26,100.59,78.43C1273.07,301.08,1357,303.33,1368.76,217.51Z" transform="translate(-1.38 -37.23)"/><path class="cls-126" d="M1333,238.09c3.3,0,5.38,2.29,5.94,5.68-1,3.46-3.36,2.37-5.52.16-1.41-1.44-3.1-5.12-.42-5.84" transform="translate(-1.38 -37.23)"/><path class="cls-126" d="M1302,253.21c3.09,1.21,4.29,4.08,3.7,7.47-2,2.88-3.94,1-5.24-1.86-.84-1.86-1.22-5.91,1.54-5.61" transform="translate(-1.38 -37.23)"/><path class="cls-126" d="M1276.73,241.44c1.82,2.13,1.66,4.7,0,6.91-2.56,1.26-3.26-.88-3.17-3.47.06-1.69,1.27-4.78,3.19-3.44" transform="translate(-1.38 -37.23)"/><path class="cls-126" d="M1206.17,239.27c2.5,2.25,2.68,5.37,1,8.33-2.88,2-4-.5-4.31-3.63-.18-2.05.81-6,3.31-4.7" transform="translate(-1.38 -37.23)"/><path class="cls-126" d="M1244.42,260.84c-2.73-1-3.73-3.39-3.11-6.23,1.9-2.43,3.55-.86,4.63,1.52.71,1.55,2.6,4.72-1.52,4.71" transform="translate(-1.38 -37.23)"/><path class="cls-126" d="M1258.15,254.9c2.4,0,3.92,1.67,4.33,4.15-.7,2.52-2.46,1.72-4,.11-1-1.05-2.26-3.74-.3-4.26" transform="translate(-1.38 -37.23)"/><path class="cls-127" d="M1394.73,314s22.53-18.15,23.66-27.95l9.35-4.09,3.75,16.46s-16,6-25.26,19.28Z" transform="translate(-1.38 -37.23)"/><path class="cls-128" d="M1237,300.58s82.91,45.12,163.08,8c0,0,8.1-9.59,8.21,5.7s-65.55,75.46-114.39,55.59c0,0-46.92-9.43-62.53-54.88l5.63-14.44Z" transform="translate(-1.38 -37.23)"/><path class="cls-129" d="M1237,300.58s82.91,45.12,163.08,8c0,0,8.1-9.59,8.21,5.7,0,0-66.23,40.59-101.09,30.33,0,0-36.61-1.68-75.83-29.62l5.63-14.44Z" transform="translate(-1.38 -37.23)"/><path class="cls-130" d="M1428.59,299.69c1.79-.85,2.9-1.27,2.9-1.27L1427.74,282l-8.42,3.69C1422.58,290.19,1425.57,295,1428.59,299.69Z" transform="translate(-1.38 -37.23)"/><polygon class="cls-130" points="1235.65 263.35 1227.12 255.5 1221.42 260.77 1230.01 277.79 1235.65 263.35"/><path class="cls-123" d="M1226.06,295l-3.26,3,8.6,17,2.52-6.46C1230.92,304.24,1227.84,299.92,1226.06,295Z" transform="translate(-1.38 -37.23)"/><path class="cls-131" d="M1166.81,332.57s-27.44-7.24-41.16,22.37,11.22,51.33,26.19,55.28c9.45,3.62,47.4,5.92,58.62-19.09C1221.07,376.66,1215.45,330.59,1166.81,332.57Z" transform="translate(-1.38 -37.23)"/><path class="cls-132" d="M1199.89,341.81c2.18,10.12,2.52,20.6-1,30.51a42.08,42.08,0,0,1-25.39,25.84c-11.28,4.16-24.11,5.12-36.73,3.75a41.25,41.25,0,0,0,15.07,8.31c9.45,3.62,47.4,5.92,58.62-19.09C1217.85,381,1217.34,355.62,1199.89,341.81Z" transform="translate(-1.38 -37.23)"/><path class="cls-132" d="M1172.61,387a2.31,2.31,0,1,1-2.31-2.44A2.38,2.38,0,0,1,1172.61,387Z" transform="translate(-1.38 -37.23)"/><path class="cls-132" d="M1185.91,372.77a1.48,1.48,0,1,1-1.47-1.56A1.52,1.52,0,0,1,1185.91,372.77Z" transform="translate(-1.38 -37.23)"/><path class="cls-132" d="M1168.28,377.19a1.72,1.72,0,1,1-1.7-2A1.84,1.84,0,0,1,1168.28,377.19Z" transform="translate(-1.38 -37.23)"/><path class="cls-132" d="M1147.21,348.77a2,2,0,1,1-1.94-2.24A2.11,2.11,0,0,1,1147.21,348.77Z" transform="translate(-1.38 -37.23)"/><path class="cls-132" d="M1139.07,359.69a2.68,2.68,0,1,1-2.67-2.7A2.69,2.69,0,0,1,1139.07,359.69Z" transform="translate(-1.38 -37.23)"/><path class="cls-132" d="M1191.09,356.57a1.72,1.72,0,1,1-1.71-2A1.85,1.85,0,0,1,1191.09,356.57Z" transform="translate(-1.38 -37.23)"/><path class="cls-130" d="M1167.44,346.63s.57-17.59,12.07-24.87l4.36,4.6s-9.78,5.71-11.5,22.69" transform="translate(-1.38 -37.23)"/><path class="cls-133" d="M1361.84,387.23c-2.69,8.76-13.12,11.38-21.33,8.5s-11.09-10.18-8.4-18.94,11.18-12.06,18.85-7.77S1364.53,378.46,1361.84,387.23Z" transform="translate(-1.38 -37.23)"/><path class="cls-134" d="M1360.64,377a21.33,21.33,0,0,1-6.11,6.35c-5,3.37-11.7,3.62-17.21,1.43a21.13,21.13,0,0,1-6.09-3.69c-2.94,11.85,4.24,15.88,11.06,18.27,8.21,2.88,16.86-3.38,19.55-12.14A11.58,11.58,0,0,0,1360.64,377Z" transform="translate(-1.38 -37.23)"/><path class="cls-135" d="M1342.69,401.94c-4,8.4-14.85,9.39-22.74,5.19s-9.78-12-5.82-20.41,13-10.38,20.15-4.84S1346.65,393.53,1342.69,401.94Z" transform="translate(-1.38 -37.23)"/><path class="cls-136" d="M1342.93,391.45a20.81,20.81,0,0,1-7.08,5.43c-5.56,2.61-12.32,1.81-17.58-1.27a22.23,22.23,0,0,1-5.63-4.68c-1.64,6.74.76,12.71,7.31,16.2,7.89,4.2,18.78,3.21,22.74-5.19A11.76,11.76,0,0,0,1342.93,391.45Z" transform="translate(-1.38 -37.23)"/><path class="cls-133" d="M1330.82,412.38c0,8.72-8.35,14.48-16.26,14.61s-12.37-5.43-12.38-14.15,6.5-14.45,14.31-13.14S1330.82,403.67,1330.82,412.38Z" transform="translate(-1.38 -37.23)"/><path class="cls-134" d="M1327.05,403.65a21.78,21.78,0,0,1-3.62,7.68,17.93,17.93,0,0,1-20.86,5.65c1.24,6.29,8.7,10.35,15.26,10.24,7.91-.12,13-6.12,13-14.84C1330.82,408.3,1329.38,405.56,1327.05,403.65Z" transform="translate(-1.38 -37.23)"/><path class="cls-10" d="M1348.33,378.27c15.27-8.49,30.22,1.18,30.22,1.18l2.93-2.15c-12.41-11.1-32.24-4.3-32.24-4.3Z" transform="translate(-1.38 -37.23)"/><path class="cls-135" d="M1377,413.47c-2.63,9.32-13.57,12.36-22.31,9.54s-12-10.45-9.31-19.77,11.53-13,19.72-8.7S1379.64,404.14,1377,413.47Z" transform="translate(-1.38 -37.23)"/><path class="cls-136" d="M1374.34,401.21c-2.56,6.12-4.74,10.12-11.25,11.43-6,1.2-17.29-4.36-17.29-4.36a12,12,0,0,1-1.19-1.07c-.79,7.48,3.82,18.33,11.27,20.74,8.73,2.82,18.49-5.16,21.12-14.48A12.24,12.24,0,0,0,1374.34,401.21Z" transform="translate(-1.38 -37.23)"/><path class="cls-135" d="M1415.06,412.47c-2.69,8.76-13.11,11.38-21.32,8.5s-11.1-10.17-8.41-18.94,11.19-12.06,18.85-7.77S1417.75,403.7,1415.06,412.47Z" transform="translate(-1.38 -37.23)"/><path class="cls-136" d="M1413.87,402.25a21.36,21.36,0,0,1-6.12,6.35c-5,3.37-11.7,3.62-17.2,1.43a20.86,20.86,0,0,1-6.09-3.69c-.68,6.79,2.46,12.23,9.28,14.63,8.21,2.88,18.63.26,21.32-8.5A11.58,11.58,0,0,0,1413.87,402.25Z" transform="translate(-1.38 -37.23)"/><path class="cls-10" d="M1363.56,401.17s24.9-43,44.71-50.35l.78,5.63s-18.07,1.69-42.22,47.65" transform="translate(-1.38 -37.23)"/><path class="cls-10" d="M1390.38,368.07S1402,382,1400.33,401l-3.52.55s2.18-18-9.68-31.06" transform="translate(-1.38 -37.23)"/><path class="cls-133" d="M1404.14,433.69c-3.05,9.93-14.85,12.89-24.15,9.63s-12.58-11.52-9.53-21.45,12.68-13.66,21.36-8.8S1407.19,423.76,1404.14,433.69Z" transform="translate(-1.38 -37.23)"/><path class="cls-134" d="M1402.79,422.12c-1.79,2.9-3,1.66-5.67,3.42-5.7,3.82-13,2.69-19.23.2a43.09,43.09,0,0,1-9.22-5.65c-.76,7.7,3.59,20.52,11.32,23.23,9.3,3.26,21.1.3,24.15-9.63A13.09,13.09,0,0,0,1402.79,422.12Z" transform="translate(-1.38 -37.23)"/><path class="cls-133" d="M1352.13,427.82c-2.69,8.76-12.8,11.49-20.72,8.72s-10.63-10-7.93-18.74,11-12.14,18.32-8S1354.83,419.07,1352.13,427.82Z" transform="translate(-1.38 -37.23)"/><path class="cls-134" d="M1351.09,417.67a21.62,21.62,0,0,1-6,6.39,17.86,17.86,0,0,1-16.66,1.63,19.86,19.86,0,0,1-5.85-3.59c-.72,6.77,2.25,12.14,8.82,14.44,7.92,2.77,18,0,20.72-8.72A11.68,11.68,0,0,0,1351.09,417.67Z" transform="translate(-1.38 -37.23)"/><path class="cls-135" d="M1329.84,444.2c-3.61,8.11-13.69,9.37-21,5.61s-9.11-11.13-5.49-19.24,12-10.25,18.6-5.2S1333.45,436.08,1329.84,444.2Z" transform="translate(-1.38 -37.23)"/><path class="cls-136" d="M1330,434.22a20.19,20.19,0,0,1-6.51,5.37,17.34,17.34,0,0,1-16.27-.69,19.78,19.78,0,0,1-5.23-4.29c-1.48,6.46.77,12.07,6.85,15.2,7.31,3.76,17.39,2.5,21-5.61A11.5,11.5,0,0,0,1330,434.22Z" transform="translate(-1.38 -37.23)"/><path class="cls-135" d="M1376.68,441.87c-3.18,8.69-13.54,10.84-21.4,7.55s-10.22-10.77-7-19.46,11.7-11.61,18.93-6.93S1379.86,433.17,1376.68,441.87Z" transform="translate(-1.38 -37.23)"/><path class="cls-136" d="M1376.15,431.52c-1.7,2.51-3.36,2.7-5.73,4.15a18,18,0,0,1-16.92.63c-2.07-1-5.2-5-6.87-6.64-1.08,6.81,2.13,17,8.65,19.76,7.86,3.29,18.22,1.14,21.4-7.55A11.92,11.92,0,0,0,1376.15,431.52Z" transform="translate(-1.38 -37.23)"/><path class="cls-133" d="M1354,454.05c-3.62,8.12-13.7,9.38-21,5.62s-9.11-11.13-5.5-19.25,12-10.27,18.62-5.21S1357.64,445.94,1354,454.05Z" transform="translate(-1.38 -37.23)"/><path class="cls-136" d="M1354.18,444.07a20.28,20.28,0,0,1-6.52,5.38,17.33,17.33,0,0,1-16.28-.7,20,20,0,0,1-5.24-4.29c-1.47,6.47.78,12.08,6.86,15.21,7.32,3.76,17.4,2.5,21-5.62A11.46,11.46,0,0,0,1354.18,444.07Z" transform="translate(-1.38 -37.23)"/><path class="cls-135" d="M1333.85,467c-3.49,7.15-12.56,7.92-19,4.28S1307,461,1310.51,453.8s11-8.77,16.84-4S1337.34,459.83,1333.85,467Z" transform="translate(-1.38 -37.23)"/><path class="cls-136" d="M1334.3,458a18.07,18.07,0,0,1-6,4.58,15.56,15.56,0,0,1-14.57-1.21,18,18,0,0,1-4.56-4c-1.52,5.74.33,10.86,5.68,13.88,6.44,3.64,15.51,2.87,19-4.28A10.28,10.28,0,0,0,1334.3,458Z" transform="translate(-1.38 -37.23)"/><path class="cls-133" d="M1313.7,463.22c-3.49,7.15-12.57,7.92-19,4.28s-7.83-10.32-4.34-17.48,11.06-8.78,16.85-4S1317.19,456.06,1313.7,463.22Z" transform="translate(-1.38 -37.23)"/><path class="cls-134" d="M1314.15,454.26a18,18,0,0,1-6,4.59,15.55,15.55,0,0,1-14.58-1.21,18,18,0,0,1-4.56-4c-1.53,5.75.32,10.87,5.68,13.9,6.45,3.64,15.53,2.87,19-4.28A10.32,10.32,0,0,0,1314.15,454.26Z" transform="translate(-1.38 -37.23)"/><path class="cls-125" d="M1255.54,363.28s16.47-36.61,38.85-7.58c0,0,20.68,30.23-11.44,35.1,0,0-22.19,6-30.23-2.58S1255.54,363.28,1255.54,363.28Z" transform="translate(-1.38 -37.23)"/><g class="cls-137"><path class="cls-138" d="M1263.52,381.17l.15-1.58c-2.16-.1-2.85,2.32-2.87,4.15a1.83,1.83,0,0,0,2.37-.64,3.68,3.68,0,0,0,.23-2.39" transform="translate(-1.38 -37.23)"/></g><g class="cls-137"><path class="cls-138" d="M1260.44,374.58c0-.39.07-.77.11-1.16-1.58-.08-2.09,1.7-2.1,3a1.33,1.33,0,0,0,1.74-.47,2.67,2.67,0,0,0,.16-1.75" transform="translate(-1.38 -37.23)"/></g><g class="cls-137"><path class="cls-138" d="M1276.33,384.2c0-.52.09-1.05.14-1.58-2.15-.1-2.85,2.32-2.86,4.15a1.83,1.83,0,0,0,2.37-.64,3.68,3.68,0,0,0,.22-2.39" transform="translate(-1.38 -37.23)"/></g><g class="cls-137"><path class="cls-138" d="M1274.76,377.34l.1-1.16c-1.57-.07-2.08,1.7-2.1,3.05a1.35,1.35,0,0,0,1.74-.47,2.77,2.77,0,0,0,.17-1.76" transform="translate(-1.38 -37.23)"/></g><g class="cls-137"><path class="cls-138" d="M1268,364.33l.79-1.37c-1.91-1-3.55.9-4.34,2.55a1.82,1.82,0,0,0,2.42.42,3.64,3.64,0,0,0,1.21-2.07" transform="translate(-1.38 -37.23)"/></g><g class="cls-137"><path class="cls-138" d="M1268,357.05l.58-1c-1.4-.73-2.61.66-3.18,1.88a1.34,1.34,0,0,0,1.77.31,2.74,2.74,0,0,0,.89-1.53" transform="translate(-1.38 -37.23)"/></g><g class="cls-137"><path class="cls-138" d="M1291.22,380l.79-1.37c-1.9-1-3.55.9-4.33,2.55a1.83,1.83,0,0,0,2.42.43,3.69,3.69,0,0,0,1.2-2.08" transform="translate(-1.38 -37.23)"/></g><g class="cls-137"><path class="cls-138" d="M1279.45,369l.58-1c-1.4-.74-2.6.66-3.18,1.87a1.35,1.35,0,0,0,1.78.31,2.66,2.66,0,0,0,.88-1.52" transform="translate(-1.38 -37.23)"/></g><path class="cls-139" d="M1294.39,355.7a46.86,46.86,0,0,0-3.65-4.19c1.31,9.47-1.43,19.27-9.63,25.17-7,5-17.5,6.88-25.94,6.22a20.26,20.26,0,0,1-5.29-1.14,11,11,0,0,0,2.84,6.46c8,8.58,30.23,2.58,30.23,2.58C1315.07,385.93,1294.39,355.7,1294.39,355.7Z" transform="translate(-1.38 -37.23)"/><path class="cls-140" d="M1293.63,357.29s1.21-15.46-13.51-17.4c-5-.66-6.73-2.13,5.23,13.19,0,0-7.76-3.28-14.58,4.52,7.22,7.49,16.13,3.33,16.13,3.33l-4.32,17c13.53-4.08,12-13,12-13s9.47,21.52,10.36,13.69C1307.61,354.73,1293.63,357.29,1293.63,357.29Z" transform="translate(-1.38 -37.23)"/><path class="cls-130" d="M1308.1,347.64c-7.56,1.93-15.67,7-15.67,7l1.57,6.66a62.71,62.71,0,0,1,16.48-8.51C1309.69,351.08,1308.89,349.36,1308.1,347.64Z" transform="translate(-1.38 -37.23)"/><path class="cls-125" d="M1226.06,411.23s-5.34-13-22.14-12.27c-16.36.69-25,11.15-23.94,27.4.76,12.16,3.72,23.23,12.57,32.16,5.91,6,24.27,20.74,32.86,7.33,0,0,19.43,18.26,37.52-9.92,6.79-10.59,10.32-20.82,10.19-33-.17-16.27-9.53-26.08-25.88-25.56-16.81.53-21.18,13.87-21.18,13.87" transform="translate(-1.38 -37.23)"/><path class="cls-141" d="M1222.91,405.46s-1.71-21.44-26.75-18.65C1196.16,386.81,1197.77,405.45,1222.91,405.46Z" transform="translate(-1.38 -37.23)"/><path class="cls-10" d="M1223.48,415.34s-6.45-35.27,4.17-38l6,1s-7.36,26.61-7,37.36Z" transform="translate(-1.38 -37.23)"/><path class="cls-142" d="M1251.66,397.52a33.09,33.09,0,0,1,1.59,6.71c1.58,12-4.81,24.62-12.19,33.66-7.84,9.63-20.1,17.9-32.91,18a54.72,54.72,0,0,1-20.77-3.84,39.3,39.3,0,0,0,5.17,6.48c5.91,6,24.27,20.74,32.86,7.33,0,0,19.43,18.26,37.52-9.92,6.79-10.59,10.32-20.82,10.19-33C1273,408.19,1265.26,398.79,1251.66,397.52Z" transform="translate(-1.38 -37.23)"/><path class="cls-130" d="M1222.91,405.46s-21.46-14.46-26.75-18.65C1196.16,386.81,1197.77,405.45,1222.91,405.46Z" transform="translate(-1.38 -37.23)"/><ellipse class="cls-143" cx="211.77" cy="734.42" rx="188.77" ry="189.56"/><path class="cls-144" d="M343.81,722.16s23.67-1.37,14.13-26.06c-7.27-18.82-20.36-16.93-39.51-17.32s-26.77,7.29-53.22,6.74c-33.82-.69-42.22-3.61-48.16-1.9-12,3.42-24.75,10.37-12.25,27.16s50.84,18.2,65.43,18.5S326.06,727.63,343.81,722.16Z" transform="translate(-1.38 -37.23)"/><path class="cls-22" d="M327.48,718.37s35.18-2.17,30.46-22.27c-3.2-13.63-14.19-15.45-38.31-24.41-18.12-6.73-24.34-17.81-50.78-18.34-33.82-.71-38.47,8.86-45,20.17S193.5,686.89,206,703.7s50.81,16.32,65.4,16.62S327.48,718.37,327.48,718.37Z" transform="translate(-1.38 -37.23)"/><path class="cls-145" d="M233.65,686.08c-.18,10.33,13.15,14,30.78,14.42s32.88-2.78,33-13.1-7.8-23.78-32.43-24.3C243.15,662.65,233.81,675.76,233.65,686.08Z" transform="translate(-1.38 -37.23)"/><path class="cls-146" d="M268.78,671.13c-.9,3.16,2.54,7.11,7.67,8.81s10,.51,10.92-2.66-2.54-7.12-7.68-8.81S269.68,668,268.78,671.13Z" transform="translate(-1.38 -37.23)"/><path class="cls-147" d="M229.87,764c-.41,5.08,3,7.88,2.62,13,112,43.65,137.27,0,137.27,0C330.3,712,248.05,753.68,229.87,764Z" transform="translate(-1.38 -37.23)"/><path class="cls-148" d="M346.44,769.16c-.24,4.08-3.46,7.21-7.19,7s-6.55-3.72-6.31-7.8,3.46-7.21,7.19-7S346.68,765.08,346.44,769.16Z" transform="translate(-1.38 -37.23)"/><path class="cls-149" d="M318,764h0s-43.47-22.88-24.2,7c7.39,11.46,21.74,3.81,21.74,3.81" transform="translate(-1.38 -37.23)"/><path class="cls-149" d="M229.87,764h0s-4.44-28.84-29.9-24c4.8,19.71,22.93,27.34,22.93,27.34S195.38,771,201.85,792c21.7,1.65,25.68-17,25.68-17C289.27,823.81,367,794.94,369.76,777,339.51,799.25,266.74,795.52,229.87,764Z" transform="translate(-1.38 -37.23)"/><path class="cls-150" d="M325.06,816.37s-12.63-6.68-15.29,2,6,16,15.29,14.69c0,0,17.95.67,19.28-13.35s-14.63-3.34-14.63-3.34Z" transform="translate(-1.38 -37.23)"/><path class="cls-151" d="M322.4,815.7s12-1.33,10.64.67S319.08,821.71,322.4,815.7Z" transform="translate(-1.38 -37.23)"/><path class="cls-152" d="M347,827.23s-12.63-6.67-15.29,2,6,16,15.29,14.69c0,0,17.95.67,19.28-13.35s-14.63-3.34-14.63-3.34Z" transform="translate(-1.38 -37.23)"/><path class="cls-153" d="M344.34,826.56s12-1.33,10.64.67S341,832.57,344.34,826.56Z" transform="translate(-1.38 -37.23)"/><path class="cls-154" d="M313.11,853.58s-12.63-6.68-15.29,2,6,16,15.29,14.69c0,0,17.95.66,19.28-13.36s-14.63-3.33-14.63-3.33Z" transform="translate(-1.38 -37.23)"/><path class="cls-153" d="M310.45,852.91s12-1.34,10.64.67S307.13,858.92,310.45,852.91Z" transform="translate(-1.38 -37.23)"/><polygon class="cls-155" points="120.36 725.41 93.98 640.9 150.88 630.87 188.15 667.1 155.7 704.43 120.36 725.41"/><polygon class="cls-156" points="59.54 679.82 93.98 640.9 120.56 686.59 114.96 703.22 59.54 679.82"/><polygon class="cls-156" points="59.54 679.82 139.1 695.07 125.39 770.46 68.11 761.55 59.54 679.82"/><polygon class="cls-157" points="122.1 700.27 188.15 667.1 184.83 746.3 125.39 770.46 122.1 700.27"/><polygon class="cls-158" points="101.91 655.38 59.54 679.82 120.56 686.59 101.91 655.38"/><polygon class="cls-159" points="93.98 640.9 94.72 628.06 149.37 620.37 150.88 630.87 93.98 640.9"/><polygon class="cls-160" points="59.54 679.82 120.56 686.59 124.26 742.26 65.92 735.82 59.54 679.82"/><path class="cls-159" d="M187.24,758l2.3-53.64L122,723.83l3.69,55.66C127.39,782,187.24,758,187.24,758Z" transform="translate(-1.38 -37.23)"/><path class="cls-155" d="M166.63,729.35c-4.62-7.27-17.52-1.33-21.58,3.48-6,7.1-7.88,20.63-.44,27.1,11.5,10,38-20,22-30.58" transform="translate(-1.38 -37.23)"/><path class="cls-161" d="M160.62,754.42c1,14.05-21.75,11.89-23-1.53-.64-6.89,6.23-9.52,12-7.9,5,1.4,9.07,3.28,11,9.43" transform="translate(-1.38 -37.23)"/><path class="cls-1" d="M144.65,749.39a23.71,23.71,0,0,0-2.39-.44c-1.78,2.49-1.45,6.21,2.29,5.37a3.88,3.88,0,0,0,.09-3.92" transform="translate(-1.38 -37.23)"/><g class="cls-8"><path class="cls-162" d="M152.72,753.91c-2.18-3.11-4.91,1.33-2.84,4.15,1.92,2.59,4.92-1.56,2.84-4.15" transform="translate(-1.38 -37.23)"/></g><g class="cls-8"><path class="cls-162" d="M144.15,750.81c-2.18-3.11-4.92,1.32-2.84,4.15,1.91,2.59,4.92-1.56,2.84-4.15" transform="translate(-1.38 -37.23)"/></g><path class="cls-155" d="M152.12,726.42c-.62-1.26,2.93-.62,0,0-2.69.58-7.54-3.43-14.45,2.9,2,3,15,4.53,15.45-2.46.1-.69-.29.47-.5.57" transform="translate(-1.38 -37.23)"/><path class="cls-155" d="M165.27,730.29c5.07,2.16,10,1,14.31,11.39-5.19,0-12.06-.76-14.81-7.38" transform="translate(-1.38 -37.23)"/><path class="cls-155" d="M151.16,728.83c.09-2.33-.42-7.74,2.91-7.93a25.28,25.28,0,0,1,1.66,7.36c3.63.2,7.94,1.4,11.32,1-.42.07,2.2-5.12,5.12-4.88,1.1,2.68-.17,7-2,9" transform="translate(-1.38 -37.23)"/><g class="cls-8"><path class="cls-162" d="M160.47,726.36c-6.64,2-6.6,11.34-2.25,15.27,4.56,4.12,8.4,4.77,11.9,3.77,6.5-10-3.15-20.81-9.65-19" transform="translate(-1.38 -37.23)"/></g><g class="cls-8"><path class="cls-162" d="M150.65,737.86a2,2,0,1,1-2-2A2,2,0,0,1,150.65,737.86Z" transform="translate(-1.38 -37.23)"/></g><path class="cls-22" d="M165.25,739.63a1.87,1.87,0,1,1-1.87-1.88A1.88,1.88,0,0,1,165.25,739.63Z" transform="translate(-1.38 -37.23)"/><path class="cls-163" d="M87.58,840l-1.29,31s6,20.55,40.06,23.5,42.65-8.41,75.2,11.62,75.55,9.36,81.77-16.21h0l1.56-25.15Z" transform="translate(-1.38 -37.23)"/><path class="cls-164" d="M143.8,878.81s-52.29,12.76-57.12-28.68c-3.79-32.57,44.33-67,119-52.22s90.46,54.79,74.36,81-39.29,27-62.56,21.22S178.06,877.48,143.8,878.81Z" transform="translate(-1.38 -37.23)"/><path class="cls-165" d="M167.28,837.35c-6.89-14.87,3.8-24.8,24.78-34.25-66.92-5.72-96.33,19.8-95.24,44.13,1.32,29.54,53.08,20.44,53.08,20.44.59,0,20.17.21,20.74.2C184.37,845.76,172.46,848.54,167.28,837.35Z" transform="translate(-1.38 -37.23)"/><path class="cls-165" d="M209,805.35c-16.67,3.56-46.55,18.56-31.55,33.59,18,18,3.31,30.49,3.31,30.49,9.48,4.08,26.17,13.82,35.6,16.18,20.24,5,37.54,11.69,51.54-11.09C281.46,852.44,268.91,819.12,209,805.35Z" transform="translate(-1.38 -37.23)"/><path class="cls-166" d="M152.1,839.73c.47-9-8.14-12.7-15.12-13.21s-16.36.49-21.43,5.34c-4.37,4.18-7.17,11-4.31,16.33a13.48,13.48,0,0,0,3.87,4.26c6.6,4.95,15.17,2.88,23.34,1.82,10.73-1.39,14-6.28,13.65-14.54" transform="translate(-1.38 -37.23)"/><path class="cls-166" d="M215.55,821.72c-5.35-.55-10.88-1.09-16,.56s-9.75,6.09-9.87,11.49c-.16,8,1.43,13,16.13,15.62,13.36,2.36,13.78,6.58,22.51,17,7.77,9.28,17.44,6.15,24.87,2.69,3.55-1.66,5.35-8.5,5.7-12.42S257.69,846.56,256,843c-3.46-7.46-12.78-21.59-40.49-21.27" transform="translate(-1.38 -37.23)"/><ellipse class="cls-167" cx="814.15" cy="190.7" rx="189.91" ry="190.7"/><path class="cls-168" d="M803.07,115.31s31.21-25,50.78,4c0,0,32.62-28.95,57.5,2.63,24.45,31-4.08,4-4.08,4L874.9,140.31l-80.23-3.94Z" transform="translate(-1.38 -37.23)"/><path class="cls-10" d="M852.75,187.69s-14.16-56.75-34.4-56.59c-7.35.06,6.07-8.62,23.75-9.21,4.46-8.15,17.45-23.69,5.52-41.22l13.54-5.5s10.81,22,8.53,42.77c0,0,5.77,19.66,16.6,25,7.18,3.53,7.77,5.26-3,19.74" transform="translate(-1.38 -37.23)"/><path class="cls-128" d="M824.31,123.85S815,98.2,785.91,112.68c-27,13.43-34.74,42.13-34.74,42.13C736.65,199.46,756,246.57,808,237.35c0,0,33,28.4,78.54,1.88,0,0,61.42,4.6,74.75-55.49,2-36.85-45.18-96.07-74.38-58.3C886.89,125.44,862,106.1,824.31,123.85Z" transform="translate(-1.38 -37.23)"/><path class="cls-169" d="M913.84,190.91s.21-30.93-27-65.47h0c14,31.26,13,45.14,13,45.14-3.26,36.85-20.19,48.69-42.42,46.06-44.18-5.23-47.9-23.83-49.11-39.48-2.14-27.63,15.93-53.31,15.93-53.31-1.76,1,1.79-1.2,0,0,0,0-21.71,8.57-29.24,65.16,0,0-27.87,17.05-48.56,3.94-.58-.36,6.78,20,6.08,19.85C762.5,231,781.14,242.11,808,237.35c0,0,33,28.4,78.54,1.88,0,0,70.58,34,74.75-55.49C951.81,188.42,936.14,196.9,913.84,190.91Z" transform="translate(-1.38 -37.23)"/><path class="cls-170" d="M890.38,133.73s25.18,51.77-3.86,105.5c0,0,16.59-8.11,20.57-45C909.82,169.06,898,146.89,890.38,133.73Z" transform="translate(-1.38 -37.23)"/><path class="cls-170" d="M817.91,132.5s-31,49.49-8.25,105.32c0,0-15.59-9.41-15.32-46.41C794.51,166.1,808.8,145,817.91,132.5Z" transform="translate(-1.38 -37.23)"/><path class="cls-171" d="M781.47,219.59c-.93-3.7-7.13-4.4-11-4.32s-9.39.7-13.3.39-9.25-8.18-9-11.92c.07-1,.44-1.87.5-2.83.16-2.87-2.49-5.35-5.23-6.67s-5.82-2-8.31-3.73-4.22-5.2-2.59-7.54c.56-.81,1.44-1.36,2.07-2.13,2.87-3.48-.61-8.71-4.06-12s-4.6-6.58-2.73-10.67c2.47-5.41,8-.45,9.43-7.16-1.58-4.2-.23-10.19,3.14-13s9-3.35,13.35-1.65c7.35,2.9,6.46,8.53,12.56,7.43,1.41-.25.26-.47,1.6-.93,5.66-2,8.39,1.13,10.13,4,4.06,6.77-.71,11.35,4.61,11.34,5.6,0,8.88,3.74,9.49,5.52a16.46,16.46,0,0,1-1.19,13.38c-.73,1.27-1.67,2.53-1.73,4-.12,3.34,1.63,4.52,3.66,7.33,6.75,9.36-12.73,23.69-11.38,31.09" transform="translate(-1.38 -37.23)"/><path class="cls-172" d="M746.6,147.51s4.13,21.55,17.94,40.74,20.31,35.41,5.28,61.53c0,0,0,.46.13,1.14,1.64,1.35,3.3,2.7,5,4a8.24,8.24,0,0,0,.55-.67s24.81-29-4.64-63.71c-14.6-17.19-21.8-42.76-21.8-42.76Z" transform="translate(-1.38 -37.23)"/><path class="cls-172" d="M755,170.74s-37-19.28-.82-3.6" transform="translate(-1.38 -37.23)"/><path class="cls-172" d="M771,193.28s-39.72-6.22-.47,3.43" transform="translate(-1.38 -37.23)"/><path class="cls-172" d="M773.45,196.34s23-26.46,2.88,3.47" transform="translate(-1.38 -37.23)"/><path class="cls-172" d="M761.18,181.5s20.69-36.4,2.9,1.83" transform="translate(-1.38 -37.23)"/><path class="cls-141" d="M758.26,244c-3.33-4.57-20.34,14.52-20.34,14.52-5.2,2.11,5.43-1.58,0,0s-31,16-43.19-1.08c-.82-1.16-.25-1.6-.72-2.94-1.4-4-.77-11.42-6-13.47-4.22-1.66-6.54-.8-10.87-1.89s-6.51-5-7.72-8.94c-2.59-8.43,3.7-9.65,4.12-11,1.89-6.22-4.11-7.53-10.61-10.29s-9.89-6.6-9.68-13.14c.28-8.64,10.55-4.74,8.64-14.59-4.49-4.92-6-13.78-3.09-19.3s10.26-9.21,17-9.1c11.5.19,13.47,8.31,21,3.69,1.76-1.07.08-.77,1.63-2.1,6.49-5.58,11.89-2.75,15.87.32,9.27,7.16,5.44,15.84,12.58,13.1,7.51-2.89,14,.54,15.84,2.66a24.62,24.62,0,0,1,6,18.84c-.27,2.12-.83,4.3-.06,6.36,1.72,4.61,8.39,5.36,12.37,8.59,8.85,7.19,6.69,16.11.26,37.92" transform="translate(-1.38 -37.23)"/><path class="cls-172" d="M676.2,175s17.13,26.17,45.45,44.43,61.31,44.37,76.12,58.7c0,0,7.89.84,10.58-10,0,0-49.23-33.31-77.32-48.81s-51.54-45.14-51.54-45.14Z" transform="translate(-1.38 -37.23)"/><path class="cls-172" d="M699.81,201.2s-62.28-1.8-3-4.31" transform="translate(-1.38 -37.23)"/><path class="cls-172" d="M720,213.75c10.48-60.2-4.92-2.71-4.92-2.71" transform="translate(-1.38 -37.23)"/><path class="cls-172" d="M733.28,224.94s-42.07,34.86,3.43,3.65" transform="translate(-1.38 -37.23)"/><path class="cls-172" d="M742.65,228.53s10-49.15,5.62,3.09" transform="translate(-1.38 -37.23)"/><path class="cls-172" d="M715.56,214.63s-62,25-2.66-5.13" transform="translate(-1.38 -37.23)"/><path class="cls-172" d="M691.5,192s16.39-46,4.22,2.32" transform="translate(-1.38 -37.23)"/><path class="cls-173" d="M771.36,255.42c10.86,8.67,20.22,16.71,26.41,22.69,0,0,7.89.84,10.58-10,0,0-9.79-6.62-23.12-15.33Q778.32,254.16,771.36,255.42Z" transform="translate(-1.38 -37.23)"/><path class="cls-171" d="M685.84,272.7,691,262.41s1.88-9,18.74-8.3c-2.11-.09,8.24-.15.47-21.29l5.13-2.57s6.17,13.34,6.17,23.63c0,0,17.49-1.68,20.72,15l-33.3,18Z" transform="translate(-1.38 -37.23)"/><path class="cls-128" d="M720.43,286.6l9-22.35s20.49-14,28.18,5.59,2.56,44.71,0,55.89-23.06,14-28.18,7" transform="translate(-1.38 -37.23)"/><path class="cls-128" d="M712.76,285.87l-9-22.36s-20.49-14-28.18,5.59-2.56,44.71,0,55.89,23.06,14,28.18,7" transform="translate(-1.38 -37.23)"/><path class="cls-129" d="M697.37,273.44s1.3-13.33,19.22-14.18c24.67-1.18,20.49,25.35,20.49,25.35S745.35,338.3,721,338.3s-23.64-7-26.2-32.13C693.53,293.59,697.37,273.44,697.37,273.44Z" transform="translate(-1.38 -37.23)"/><path class="cls-125" d="M916.76,241.1s-26.21-6.58-39.32,20.35,10.72,46.67,25,50.26c9,3.3,45.29,5.39,56-17.35C968.61,281.19,963.24,239.3,916.76,241.1Z" transform="translate(-1.38 -37.23)"/><path class="cls-142" d="M937.47,243.79c.93,1.85-5.81,4.59-4.62,6.29,13.11,18.55,9.63,36.56-7.08,45.81-12.42,6.87-28.59,6.71-43.61,2.64,6,7,14.06,11.61,20.3,13.18,9,3.3,45.29,5.39,56-17.35C966.84,283.49,964.62,253.08,937.47,243.79Z" transform="translate(-1.38 -37.23)"/><path class="cls-174" d="M954.9,244.09s-10.76-7.78-30.43-4.19a86.86,86.86,0,0,1,5.45-22.7c-.86-.32-3.47-2.39-4.33-2.71-1.93,3.87-5,11.43-7.63,24.22,0,0-12.52-6-32.18,2.39,0,0,9.53,6.58,24.43,3.59,0,0-13.71,7.78-13.71,22.14a84.14,84.14,0,0,0,23.24-19.75s-1.19,11.37,6,15a22.83,22.83,0,0,0,0-16.75s8.35,17.35,19.67,15c0,0-.6-5.39-11.32-14.36C934.05,245.89,945.37,248.28,954.9,244.09Z" transform="translate(-1.38 -37.23)"/><path class="cls-171" d="M879,323.58c11.39-7,28.15-20.33,42.67-23.79l5.16,10.72s-17.13,4.3-45.49,21.22l-1.41-.49A4.21,4.21,0,0,1,879,323.58Z" transform="translate(-1.38 -37.23)"/><path class="cls-141" d="M882.12,326.32s24.64-14.28,46.71-2.92l1.28,11.27s-18.49-12.4-44.75.3" transform="translate(-1.38 -37.23)"/><path class="cls-141" d="M876.42,326.48s19.8-24.55,13.21-38l13.9,0s5.05,17.44-21.51,41.67Z" transform="translate(-1.38 -37.23)"/><path class="cls-171" d="M891.92,326.25s18,5.58,29.22,12.94h0l-5.24,7s-16.81-16.5-36.78-14Z" transform="translate(-1.38 -37.23)"/><path class="cls-131" d="M892.22,323.79S880,302.28,859.35,305.9c-28.5,5-79.23,29.32-98.13,47.94s66.31,19.78,66.31,19.78S911.68,372.62,892.22,323.79Z" transform="translate(-1.38 -37.23)"/><path class="cls-132" d="M892.22,323.79s-.21-.37-.61-1c-14,22.34-43.8,32.56-71.44,36.32a271,271,0,0,1-61.4,1.26c4.74,12.36,68.76,13.24,68.76,13.24S911.68,372.62,892.22,323.79Z" transform="translate(-1.38 -37.23)"/><path class="cls-132" d="M845.28,310.37s19.9,10.86,13.1,29c0,0-2.63-15.66-25.56-24.69Z" transform="translate(-1.38 -37.23)"/><path class="cls-132" d="M818.93,320.64s18.3,11,13.46,25.18c0,0-16.14-20.35-26.64-20Z" transform="translate(-1.38 -37.23)"/><path class="cls-132" d="M792.75,332.42s14.92,9.85,6.19,18.33c0,0-5.14-9.34-15.27-12.86Z" transform="translate(-1.38 -37.23)"/><path class="cls-175" d="M876.06,190.17s-15.71-13.11-34.6,22.22c0,0-11.77,32.12-37.64,35.76-28.23,10.66-36.1,30.36-23.77,46.52,4.45,6.21,33.39,25,52.26-1,19.28-26.52,9.86-34.13,32.34-43.61C869.74,248,895.06,206.88,876.06,190.17Z" transform="translate(-1.38 -37.23)"/><path class="cls-176" d="M814.05,290.08c19-7.47,27.93-23.32,40.4-36.72,9.29-10,17.76-36.76,27.12-57,9.58,14.44-3.94,48-13.62,67.09-8.93,17.66-18,27.08-25.09,32.35-25.73,19.13-50,15-62.81-1.1-.8-1,.56,1,0,0C789.51,299.88,799.61,295.76,814.05,290.08Z" transform="translate(-1.38 -37.23)"/><path class="cls-141" d="M885.41,209.44c.07-2.63,6.12-11.12-3-21.28,0,0,4.1-9.36,2-18l-3.6-2.25s-.12,13.43-6,17.78c0,0-11.26-2.77-19.3,6.63l17.4-1.07s-7.71,7.24-5.38,10.69S879.7,197,879.7,197s1.53,6.66,4.45,11C884.52,208.52,885.39,210.09,885.41,209.44Z" transform="translate(-1.38 -37.23)"/><ellipse class="cls-177" cx="343.92" cy="316.96" rx="191.48" ry="192.28"/><path class="cls-22" d="M293.09,259.47c-2.52-6.21-.49-13.81,3.89-18.65s10.7-7.21,17-7.87c3.34-.35,0,0,8.59-4.29,1.17-.59,3.72-5.57,3.72-5.57.54-3.61,10.56-6.48,13.85-7.43s-3.28,1,0,0c7-2.11,12.13-1.75,18.44-5.63,15.56-9.56,45.25-1.36,48.49,5.8,1.64,3.63,5.17,6,8.54,7.81,4.31,2.28,9.39,2,14,3.55,9.53,3.22,15.61,15.29,12.9,25.61l-35.23,4.9" transform="translate(-1.38 -37.23)"/><path class="cls-178" d="M429.54,227.19c-4.58-1.55-9.66-1.27-14-3.55-3.37-1.78-6.9-4.18-8.54-7.81-1.81-4-11.83-8.3-23-9.68,0,.28-.13.7.1.83,18.7,10.69,9.59,29.33.1,35.45-13.52,8.73-47.4,4.21-62.82,5.92a204.74,204.74,0,0,1-28.85,1.08,16.63,16.63,0,0,0,.58,10l108.5,17.24c11.74-1.64,29.1-22.28,40.85-23.91C445.15,242.48,439.07,230.41,429.54,227.19Z" transform="translate(-1.38 -37.23)"/><path class="cls-179" d="M293.54,245.57s-5.94-1.44-10.68.56c-5.68,2.4-9.64,8.83.28,16.33,0,0-8.69,6.29-6.73,33.49,1.44,25.16,2.07,30.75,8.32,44.73,2.64,5.9,6.33,17.83,32.58,17.29s99.33,8.28,123.52-5.1c21.78-12.85,15.69-74.72,15.69-74.72s-2.65-12.78-6.09-15.27c0,0,8.32-4.68,7.31-9.61-.61-3-2.6-10.28-15.71-8.18l.41,7.71c-27.12,5.41-98.42,10.34-151.13.51Z" transform="translate(-1.38 -37.23)"/><path class="cls-180" d="M329,273.82c-37.05-2.67-45.84-11.36-45.84-11.36l-5.75,10.38a376.69,376.69,0,0,0,51.21,3.4C328.73,275.43,328.85,274.63,329,273.82Z" transform="translate(-1.38 -37.23)"/><path class="cls-180" d="M450.43,262.88s-28.64,9.56-72.75,11.75l1.5,2.81s60.59-1.52,77.34.71C456.52,278.15,455,262.78,450.43,262.88Z" transform="translate(-1.38 -37.23)"/><path class="cls-180" d="M448.45,319.11c-13.39,5.41-36,10.21-51.44,19.42-7.84,4.68-25.36,7.64-62.13,5.09-17.23-1.19-48.19,2.55-55.34-17.44a79,79,0,0,0,5.19,14.5c2.64,5.9,6.33,17.83,32.58,17.29s99.33,8.28,123.52-5.1c11.42-6.31,15.25-24.58,16.11-42.05C454.46,313.83,452.21,317.59,448.45,319.11Z" transform="translate(-1.38 -37.23)"/><path class="cls-178" d="M382,234.9a1.92,1.92,0,1,1-2-1.76A1.86,1.86,0,0,1,382,234.9Z" transform="translate(-1.38 -37.23)"/><path class="cls-178" d="M377.47,226.25a1.92,1.92,0,1,1-2-1.76A1.86,1.86,0,0,1,377.47,226.25Z" transform="translate(-1.38 -37.23)"/><path class="cls-178" d="M355.52,229.53a1.92,1.92,0,1,1-1.95-1.76A1.86,1.86,0,0,1,355.52,229.53Z" transform="translate(-1.38 -37.23)"/><path class="cls-178" d="M347.69,233.29a1.68,1.68,0,1,1-1.7-1.54A1.62,1.62,0,0,1,347.69,233.29Z" transform="translate(-1.38 -37.23)"/><g class="cls-181"><path class="cls-182" d="M325.37,317.2s46.91-3.82,64.53-17.55l.35,1.73s-27.79,17.41-65.52,17.41Z" transform="translate(-1.38 -37.23)"/><path class="cls-182" d="M385.87,303.52s.95-10.67,15-5.64C400.87,297.88,393.4,309.24,385.87,303.52Z" transform="translate(-1.38 -37.23)"/><path class="cls-182" d="M385.87,303.52l15-5.64S395.51,309.71,385.87,303.52Z" transform="translate(-1.38 -37.23)"/><path class="cls-182" d="M377.93,307s-6.36-6.51,3.6-15.66C381.53,291.31,386.82,303.83,377.93,307Z" transform="translate(-1.38 -37.23)"/><path class="cls-182" d="M377.93,307l3.6-15.66S388.39,302.33,377.93,307Z" transform="translate(-1.38 -37.23)"/><path class="cls-182" d="M367,310.54s-7.18-5.59,1.44-16C368.45,294.52,375.4,306.2,367,310.54Z" transform="translate(-1.38 -37.23)"/><path class="cls-182" d="M367,310.54l1.44-16S376.74,304.49,367,310.54Z" transform="translate(-1.38 -37.23)"/><path class="cls-182" d="M356.18,313.44s-7.18-5.58,1.44-16C357.62,297.43,364.57,309.11,356.18,313.44Z" transform="translate(-1.38 -37.23)"/><path class="cls-182" d="M356.18,313.44l1.44-16S365.91,307.4,356.18,313.44Z" transform="translate(-1.38 -37.23)"/><path class="cls-182" d="M355.75,313.31s8.22-3.88,13.54,8.58C369.29,321.89,355.77,322.78,355.75,313.31Z" transform="translate(-1.38 -37.23)"/><path class="cls-182" d="M355.75,313.31l13.54,8.58S356.67,324.76,355.75,313.31Z" transform="translate(-1.38 -37.23)"/><path class="cls-182" d="M367,310.53s7.88-3.71,13,8.22C379.92,318.75,367,319.6,367,310.53Z" transform="translate(-1.38 -37.23)"/><path class="cls-182" d="M367,310.53l13,8.22S367.83,321.5,367,310.53Z" transform="translate(-1.38 -37.23)"/><path class="cls-182" d="M377.82,306.4s7.07-4.78,13.8,6C391.62,312.42,379.19,315.2,377.82,306.4Z" transform="translate(-1.38 -37.23)"/><path class="cls-182" d="M377.82,306.4l13.8,6S380.31,316.9,377.82,306.4Z" transform="translate(-1.38 -37.23)"/><path class="cls-182" d="M345.08,315.49s-6.45-6.43,3.38-15.72C348.46,299.77,353.93,312.22,345.08,315.49Z" transform="translate(-1.38 -37.23)"/><path class="cls-182" d="M345.08,315.49l3.38-15.72S355.47,310.69,345.08,315.49Z" transform="translate(-1.38 -37.23)"/><path class="cls-182" d="M343.68,315.22s8.63-2.83,12.39,10.19C356.07,325.41,342.54,324.62,343.68,315.22Z" transform="translate(-1.38 -37.23)"/><path class="cls-182" d="M343.68,315.22l12.39,10.19S343.19,326.69,343.68,315.22Z" transform="translate(-1.38 -37.23)"/></g><path class="cls-183" d="M387.48,373.94c-3.19-.75-21.89,8.4-10.43,11.08,14.91,3.49,37.37,26.15,89,12.94,32.22-8.23,35.75-37.89,41.15-46.71,10.85-17.75,5.77-20.06,5.77-20.06s-.57-2-14.26,3.42c-19.76,7.77-22.85-3.09-53,1.12s-38.67,16.82-45.2,25.48A54.79,54.79,0,0,1,387.48,373.94Z" transform="translate(-1.38 -37.23)"/><path class="cls-184" d="M420.18,357.87c-.74-3.59,1.33-7.29,4.23-9.52s6.48-3.3,10-4.31l11.05-3.21c3.83-1.11,7.73-2.24,11.71-2.13s8.13,1.62,10.46,4.87c4.48,6.25.18,15.27-5.82,20.07a34.2,34.2,0,0,1-21.51,7.49c-7.41-.06-17.08-6.48-20.11-13.26" transform="translate(-1.38 -37.23)"/><path class="cls-185" d="M513,331.19s0-.16-.44-.26c-9,14-17.88,31.39-32.94,39.42-13.68,7.3-22-2.16-32.27,16.47-16.08,11.26-51.56,3-71.53-7.91-2.95,2.35-3.95,4.89,1.24,6.11,14.91,3.49,37.37,26.15,89,12.94,32.22-8.23,35.75-37.89,41.15-46.71C518.07,333.5,513,331.19,513,331.19Z" transform="translate(-1.38 -37.23)"/><path class="cls-185" d="M448.07,372.88c0,1.59,2.58,2,3.56.78s-1.72-5.11-2.61-6.42c-1.83-2.68-4.29-5.19-6.28-.48a6.46,6.46,0,0,0,5.56,6.58" transform="translate(-1.38 -37.23)"/><path class="cls-185" d="M453.64,350.46c0,1.49,2.41,1.89,3.32.73s-1.6-4.78-2.44-6c-1.7-2.5-4-4.85-5.86-.45a6,6,0,0,0,5.19,6.15" transform="translate(-1.38 -37.23)"/><path class="cls-185" d="M478.36,357.63c0,1.66,2.69,2.1,3.71.81s-1.8-5.32-2.73-6.69c-1.9-2.79-4.47-5.4-6.54-.49a6.73,6.73,0,0,0,5.8,6.85" transform="translate(-1.38 -37.23)"/><path class="cls-185" d="M420.16,362.73c0,1.48,2.41,1.89,3.32.73s-1.6-4.78-2.44-6c-1.7-2.51-4-4.85-5.86-.45a6,6,0,0,0,5.19,6.15" transform="translate(-1.38 -37.23)"/><path class="cls-185" d="M415.55,376.32c-.05,1.48,2.29,2,3.26.91s-1.32-4.84-2.08-6.1c-1.55-2.59-3.7-5.06-5.8-.79a6,6,0,0,0,4.81,6.42" transform="translate(-1.38 -37.23)"/><path class="cls-186" d="M297.26,435.31s39.86,12,67.1,1.15c29.89-11.86,5.46-57.14-44-66-40.24-6.76-100.25-43.64-139.41-10.82C155.6,395.66,258.37,432.83,297.26,435.31Z" transform="translate(-1.38 -37.23)"/><path class="cls-187" d="M181,359.66c-.82,5.51,1.23,11.36,5.79,16.47,7.75,8.69,18.72,14.43,29,19.5a244.57,244.57,0,0,0,33.48,13.85c7.61,2.42,15.38,4.36,23.22,6a241.65,241.65,0,0,0,58.94,12.4c14,1.16,30.83,2.3,44.73-2.6-1.71,4.72-3.47,6.94-9.14,10.61-15.06,9.74-68.14.78-68.14.78C255.43,432.23,153.84,396.68,181,359.66Z" transform="translate(-1.38 -37.23)"/><path class="cls-187" d="M292,368.25l11.12-1.88.54-.09,8.4,2.44s-40,36.15-51,22.67Z" transform="translate(-1.38 -37.23)"/><path class="cls-182" d="M290,374.32c-8.16,6.58-16.23,14.35-20.59,15.77a29.07,29.07,0,0,1-5.48,1.5,6.6,6.6,0,0,1-2.82-.2,3.84,3.84,0,0,1-.85-.52,2.37,2.37,0,0,1-.42-.51c-.29-.91-.22-.94.35-2.42,3.24-8.41,12.85-15.45,19.76-21,2.53-2.05,5.15-4,7.78-5.91,5.48,1.86,10.82,3.67,15.94,5.28C301.2,368.46,292.59,372.25,290,374.32Z" transform="translate(-1.38 -37.23)"/><path class="cls-187" d="M235.56,353.69l18.33-3.16,5.27,2.09s-27.7,28.42-37.31,18.84Z" transform="translate(-1.38 -37.23)"/><path class="cls-182" d="M243.14,357.37c-7.74,5.77-10.32,10.74-14.26,12.17-1.57.57-2.84,1.3-4.41,1.71a5.77,5.77,0,0,1-2.62.21,2.49,2.49,0,0,1-1.49-1,4.76,4.76,0,0,1-.78-2.34c.07-7.13,11.34-13.28,16.25-17.65,1-.91,2.1-1.89,3.22-2.87,6.1.6,8.58,1.5,14.84,3C251.78,352.38,245.17,355.86,243.14,357.37Z" transform="translate(-1.38 -37.23)"/><path class="cls-187" d="M335.06,388.85l17.86-6.19c1.79,1.58,4.14,2.27,5.87,3.91-4.72,4.75-34.58,34.26-40.81,20.33Z" transform="translate(-1.38 -37.23)"/><path class="cls-182" d="M318,403.15c1.67-8.49,8.6-16.44,14.2-22.65,2.1-2.32,3.23-3.39,5.48-5.57,4.11,1.74,5.83,1.82,9.63,3.91,1,.84,4.79,3.11,5.8,4-2.52,2.51-10.54,6.25-13.12,8.64-6.64,6.13-13.31,16.23-20.12,17.12-1.67.22,1.51-.27,0,0-.51.09-.77.19-1,.06a1.39,1.39,0,0,1-.18-.26,9.1,9.1,0,0,1-.7-1.5A7.93,7.93,0,0,1,318,403.15Z" transform="translate(-1.38 -37.23)"/><path class="cls-188" d="M334.15,489c6.19-2.92,10.78-8.95,13.24-14.91s1.92-12.73.7-19.07c-1.27-6.58-3.31-13.19-7.43-18.46-3.36-4.3-7.94-7.48-12.68-10.18a93.92,93.92,0,0,0-52.54-12c-10,.69-20.12,3.12-28.25,9-15.95,11.44-20.51,36.09-9.72,52.51,6.49,9.87,17.31,16.3,28.7,19.32s23.37,2.9,35.1,1.85c11.3-1,22.73-2.93,32.88-8" transform="translate(-1.38 -37.23)"/><path class="cls-189" d="M232.42,447.21c6,12.92,12.26,2,20.35,13.2,19.69,27.35,54.24,23,65.36,21.94,18.91-1.82,29.26-8.26,29.54-9.06-.1.26-.17.54-.28.8-2.46,6-7.05,12-13.24,14.91-10.15,5.1-21.58,7-32.88,8-11.73,1.05-23.72,1.16-35.1-1.85s-22.21-9.45-28.7-19.32C232,467.5,230.48,457,232.42,447.21Z" transform="translate(-1.38 -37.23)"/><path class="cls-190" d="M332.41,448.49c.85-5.45-3-10.53-7.14-14.1a49.37,49.37,0,0,0-49.94-7.94,8,8,0,0,0-2.86,1.74,5.78,5.78,0,0,0-1.38,3.15c-.87,6.15,5.21,11.24,11.24,12.62s12.39.45,18.44,1.71c5.77,1.2,11,4.33,16.68,5.84s14.45,6,16.18-3.89" transform="translate(-1.38 -37.23)"/><path class="cls-191" d="M268.2,455.92a5.85,5.85,0,0,1-1.6,7.84c-1.91-.17-3.05-2.44-2.75-4.34s1.61-3.47,2.86-4.93" transform="translate(-1.38 -37.23)"/><path class="cls-191" d="M252.32,440.86a2.27,2.27,0,0,1,2.37-1.83c1.76,2.28-.24,6.26-3.12,6.2a2.5,2.5,0,0,1,0-4" transform="translate(-1.38 -37.23)"/><path class="cls-191" d="M265.53,425.31c1.53,2.26-1.28,5.81-3.81,4.82-1.48-2,.67-5.36,3.09-4.85" transform="translate(-1.38 -37.23)"/><path class="cls-191" d="M337.88,444.11A5.85,5.85,0,0,1,339,452c-1.86.49-3.69-1.27-4-3.16s.35-3.81,1-5.6" transform="translate(-1.38 -37.23)"/><path class="cls-191" d="M322.82,463.59a5.86,5.86,0,0,1-1.61,7.84c-1.91-.17-3-2.44-2.74-4.34s1.6-3.47,2.85-4.93" transform="translate(-1.38 -37.23)"/><path class="cls-191" d="M306.93,448.54a2.28,2.28,0,0,1,2.38-1.84c1.75,2.28-.25,6.26-3.12,6.2a2.49,2.49,0,0,1,0-4" transform="translate(-1.38 -37.23)"/><path class="cls-191" d="M316.8,437.65c1.75,2.09-.68,5.9-3.3,5.19-1.68-1.83.12-5.41,2.58-5.14" transform="translate(-1.38 -37.23)"/><path class="cls-191" d="M283.73,454.58a5.86,5.86,0,0,1-1.67,7.82c-1.91-.18-3-2.46-2.71-4.36s1.64-3.45,2.9-4.9" transform="translate(-1.38 -37.23)"/><path class="cls-191" d="M296.65,424.87a5.16,5.16,0,0,1-2.41,6.62c-1.64-.39-2.34-2.52-1.83-4.13a9.27,9.27,0,0,1,3.12-3.92" transform="translate(-1.38 -37.23)"/><path class="cls-191" d="M286.41,470.74a2.28,2.28,0,0,1,2.17-2.07c2,2.09.41,6.26-2.46,6.49a2.49,2.49,0,0,1-.42-4" transform="translate(-1.38 -37.23)"/><path class="cls-192" d="M376.24,461.63s25.77-14,36.61-18.09c0,0,14.92,1.65,14.24,6.58s-31.72,19.53-31.72,19.53S388.11,474.05,376.24,461.63Z" transform="translate(-1.38 -37.23)"/><path class="cls-168" d="M389.84,460.23s-5.44-2.64-8.73,1c-1.77,1.94,10,7.54,12.91,6.42C401.82,464.64,389.84,460.23,389.84,460.23Z" transform="translate(-1.38 -37.23)"/><path class="cls-192" d="M413.12,467s25.76-14,36.61-18.09c0,0,14.92,1.65,14.24,6.58S432.24,475,432.24,475,425,479.44,413.12,467Z" transform="translate(-1.38 -37.23)"/><path class="cls-168" d="M425.71,466.23s-5.44-2.64-8.73,1c-1.77,1.94,10,7.54,12.91,6.42C437.69,470.64,425.71,466.23,425.71,466.23Z" transform="translate(-1.38 -37.23)"/><path class="cls-169" d="M454.66,463.24c5.07-3.07,9.07-6,9.31-7.73.68-4.93-14.24-6.58-14.24-6.58-2.84,1.08-6.71,2.84-10.87,4.84A29.06,29.06,0,0,1,454.66,463.24Z" transform="translate(-1.38 -37.23)"/><path class="cls-192" d="M470,446.9s-25.76-14-36.61-18.09c0,0-14.92,1.65-14.24,6.58s31.73,19.52,31.73,19.52S458.15,459.32,470,446.9Z" transform="translate(-1.38 -37.23)"/><path class="cls-168" d="M457.43,446.11s5.44-2.64,8.73,1c1.77,1.94-10,7.54-12.91,6.42C445.45,450.51,457.43,446.11,457.43,446.11Z" transform="translate(-1.38 -37.23)"/><ellipse class="cls-193" cx="1413.7" cy="737.91" rx="189.91" ry="190.7"/><path class="cls-194" d="M1432.23,639.91l27,27.66V714s-8.56,1.21-8.54,7.89c0,6.09,2.5,7.2,12.08,7.89v91.51s-10,9.82-41.76,9.82c-43.21,0-43.21-11.92-43.21-11.92V725.79s9.7,1.38,10.25-6.92c.26-3.91-6.71-6.92-6.71-6.92V667.57l28-27.66Z" transform="translate(-1.38 -37.23)"/><path class="cls-195" d="M1445.83,721.75c-.37-7.87,9.1-12.86,9.1-12.86l-.09-38.53h-69.53l-.58.56.89,38s9.6,3.07,9.11,10.93c-.61,9.85-6,9.66-12.26,10.94v85.58s0,10.94,38.45,10.94c28.22,0,37.16-9,37.16-9,0-16.73.07-85.27.07-85.27C1451.85,731.71,1446.27,731.34,1445.83,721.75Z" transform="translate(-1.38 -37.23)"/><polygon class="cls-196" points="1433.03 604.3 1404.27 604.94 1405.55 586.92 1431.82 586.92 1433.03 604.3"/><path class="cls-197" d="M1406.93,624.16h26.27s-3.27,6.75-14.31,5.08S1406.93,624.16,1406.93,624.16Z" transform="translate(-1.38 -37.23)"/><path class="cls-198" d="M1423,811.65c-13.63-6.57-16.35-23.47-15.3-37.18,1.09-14.24,5.11-31.32,18.73-38.51,6-3.15,15.53-4.24,15-13.09-.4-6.22-.13-6.51-5.3-8.45a138,138,0,0,1-17.66-1.67c-7.85-1.31-10.15-2.74-15.46-8.86-6.26-7.22-4.78-19.12-4.59-28.26-2.69.08-5.38.12-8.08.15-.85,6.84-2.44,11.58-1.59,18.93.73,6.4.62,10.32,5.5,14.42,2.69,2.25,5.45,5,5.21,12-.3,9.19-4.86,10.37-9.7,16.62-3.86,5-1.66,20.51-1.66,35.48,0,11.47,0,26.05.72,31.82,1.47,11.74,9.58,15.78,21.11,16.29,12.74.56,39.45,2.89,40.55-4.32A55.85,55.85,0,0,1,1423,811.65Z" transform="translate(-1.38 -37.23)"/><path class="cls-128" d="M1423.66,682.07c2.26-1.5,8.55-2,13.85-1.5,1.56.14,5.8.46,7.25,1.06a8.18,8.18,0,0,1,4.41,5.41,24.65,24.65,0,0,1,.61,7.18c0,2-.25,6.18-1.23,8s-.33,2.44-2.21,1.66c-1.67-.69-.79-1.25-1-3.06a38,38,0,0,0-1.11-8.58c-1.14-4-10.38-4.61-14.55-4.73-1.73-.05-3.56-.05-5-1s-2.23-3.18-1-4.43" transform="translate(-1.38 -37.23)"/><path class="cls-128" d="M1448.22,739.1c-.56,14.41.55,17.18-.56,32.15-.35,4.75-1.87,9.62-3.13,14.22s-4.47,8.94-9,10.23c-2.12.59-4.38.5-6.54.95s-4.39,1.69-5,3.81a5.54,5.54,0,0,0,.71,4.26c2.75,4.7,9.11,5.5,14.54,5.49,2.65,0,5.55-.17,7.53-1.94a10.45,10.45,0,0,0,2.65-5c6.22-21,2.72-35.93,2.17-64.2" transform="translate(-1.38 -37.23)"/><path class="cls-199" d="M1384.73,670.91s6.38,7.33,34.69,5c12.9-1,26.59-.31,35.42-5.57,0,0-7-8.74-36.52-6.74C1405.85,664.47,1393,664.34,1384.73,670.91Z" transform="translate(-1.38 -37.23)"/><path class="cls-200" d="M1313.39,831.14s-34.48,3.46-37.09-16.59.24-46.44,30.22-55.39l24.49-.78s28.11,1.06,32.48,31.14c3.67,25.23,1.6,40.08-24.71,41.76Z" transform="translate(-1.38 -37.23)"/><path class="cls-200" d="M1301.84,736.64l.12,27.05s19,7.39,32.65-.74l-.53-21.8a.89.89,0,0,1,.56-.86l17.53-7.09c.73-.3-.81.36-1.07-.39-1.22-3.53-19.56-12.11-31.86-12.24-10.81-1.78-31.72,7.83-19.43,15.44C1300,736.07,1301.71,738.37,1301.84,736.64Z" transform="translate(-1.38 -37.23)"/><path class="cls-201" d="M1283.42,791c-1.26,6.14-.6,17.58-.43,20.14a4.14,4.14,0,0,1-.08,1.05c-2.86,15.27,32.43,13.92,32.43,13.92l21.94.12h.36c20.85-1.4,24.09-12.38,22-31.08a4.21,4.21,0,0,0-4.15-3.75Z" transform="translate(-1.38 -37.23)"/><path class="cls-202" d="M1287.3,785.1c-3,2-6.51,3.42-3.88,5.93,5.85,5.57,22.73,5.09,41.52,4.58,30-.81,33.33.54,34.26-4.17,2.35-11.81-34.71-10.74-37.93-10.63a3.38,3.38,0,0,1-.45,0C1318.34,780.62,1296.38,779.14,1287.3,785.1Z" transform="translate(-1.38 -37.23)"/><path class="cls-203" d="M1301.69,757s5.12,4,15.7,3.73c0,0,14.21.68,17.55-3.55l2.41,1.53s-6.68,6.64-19.67,5.36c0,0-10,1.16-17.51-4.35" transform="translate(-1.38 -37.23)"/><path class="cls-201" d="M1301.81,752.11l0-9.73c-13-4-41.09-7.2-46.12,16-4.6,21.27,19.29,38.81,19.29,38.81l4.17-16.37c-19-12.39-9.86-22.82-3.93-29.16C1280.86,745.73,1299.68,751.79,1301.81,752.11Z" transform="translate(-1.38 -37.23)"/><path class="cls-203" d="M1337.38,729.91a.89.89,0,0,1,.07,1.68c-4.16,1.68-13.73,4.9-23.28,3.48-12.68-1.89-11.74-8.71,1.41-9.55C1321.88,725.11,1332.74,728.39,1337.38,729.91Z" transform="translate(-1.38 -37.23)"/><path class="cls-22" d="M1303.47,731l-1.25,2a.9.9,0,0,0,.37,1.29c3.74,1.82,19,8,39-.78a.9.9,0,0,0-.24-1.71h0a.91.91,0,0,0-.4,0c-2.26.75-24,7.64-36.21-1A.89.89,0,0,0,1303.47,731Z" transform="translate(-1.38 -37.23)"/><path class="cls-204" d="M1355.94,819l.06-.09a4.21,4.21,0,0,0-2.43-6.32c-11-3-29.73-5.55-42.82-5.14-9.92.32-18,1.06-27.67,3.93,0,.1,0,.2-.06.3-.25,1,.16,3.24.74,5.4a4.16,4.16,0,0,0,6,2.64c18.34-10,45.22-7.08,60.77.75A4.18,4.18,0,0,0,1355.94,819Z" transform="translate(-1.38 -37.23)"/><polyline class="cls-205" points="1571.05 771.7 1433.85 774.12 1510.87 704.83 1575.06 766.06 1575.06 762.39 1433.85 820.4"/><polyline class="cls-206" points="1433.85 822.24 1464.34 772.28 1575.06 766.06 1575.06 766.06 1568.64 817.63 1433.85 824.08"/><path class="cls-207" d="M1512.25,742.06l-36.48,32.83c15.62,7.46,5.55,15.71-3.63,15.71a7.51,7.51,0,0,1-7.57-5.64l-29.34,26.4,94.37-5.07a9.48,9.48,0,0,1,2.63-6.19,9,9,0,0,1,12.79,0,9.46,9.46,0,0,1,2.54,5.16l28.88-2S1570,763,1512.25,742.06Zm15,34.92c-16.58,2.15-12.85-12.37-4.81-12.89C1539,763,1535.74,775.88,1527.23,777Z" transform="translate(-1.38 -37.23)"/><path class="cls-208" d="M1547.56,805.26a8.91,8.91,0,0,1,.1,1.26v1.61a9.45,9.45,0,0,1-2.64,6.42,9,9,0,0,1-12.79,0,9.37,9.37,0,0,1-2.65-6.42v-1.61a1.64,1.64,0,0,1,0-.23l-94.37,5.07v9.78a9.86,9.86,0,0,1,3.21-.68,8.25,8.25,0,0,1,5.75,2.4c1.48,1.48,4.21,3.68,4.21,5.77v1.61c0,2.22-2.75,6-4.21,7.62a8.25,8.25,0,0,1-5.75,2.39,7.25,7.25,0,0,1-3.21-.68v21.74L1570,854.86l6.42-51.56Zm-44.93,38.44c-1.54,1.54-5.85,3-5.85,3a8.12,8.12,0,0,1-3.42.7,7.56,7.56,0,0,1-5.4-2,12.44,12.44,0,0,1-2.25-1.66,10.89,10.89,0,0,1,0-15.38,11.15,11.15,0,0,1,7.65-3.19H1495a11.27,11.27,0,0,1,7.66,3.19,10.91,10.91,0,0,1,0,15.38Z" transform="translate(-1.38 -37.23)"/><polygon class="cls-209" points="1366.2 834.22 1295.95 819.34 1295.95 853.51 1372.79 888.23 1374.98 852.96 1366.2 834.22"/><polygon class="cls-210" points="1295.95 819.34 1374.98 852.96 1426.58 829.81 1354.13 799.49 1295.95 819.34"/><polygon class="cls-211" points="1372.79 888.23 1374.98 852.96 1426.58 829.81 1426.58 866.18 1372.79 888.23"/></g></svg>